<svg width="53" height="16" fill="none" xmlns="http://www.w3.org/2000/svg"><path d="m7.894 12.236-.601-1.545H4.299l-.568 1.545H1.7l3.245-7.872h1.814l3.212 7.872H7.894Zm-2.076-5.77-.983 2.702h1.944l-.961-2.702ZM14.045 8.2a1.24 1.24 0 0 0-.235-.044 3.17 3.17 0 0 0-.224-.011c-.24 0-.443.044-.606.133a1.214 1.214 0 0 0-.607.734c-.043.15-.065.278-.065.389v2.84h-1.792v-5.53h1.726v.8h.022c.136-.284.333-.517.59-.695.257-.178.552-.267.885-.267.07 0 .142.006.213.011a.61.61 0 0 1 .17.034L14.044 8.2Zm1.284-.122 1.475 1.501 2.349 2.39.54.55a1.365 1.365 0 0 0 1.923 0c.29-.294.612-.566.875-.889 2.053-2.512 5.812-8.328 5.817-8.333.503-.512-1.578-2.246-2.12-1.701-.289.294-4.68 7.11-5.413 7.855-.355.361-.72.717-1.07 1.09l-.017.016h1.923l-1.475-1.5-2.349-2.391-.54-.55c-.498-.506-2.454 1.417-1.918 1.962Zm16.699 1.445v.223c0 .072-.005.144-.01.211h-3.94c.017.156.06.295.137.423.077.127.175.233.295.328a1.452 1.452 0 0 0 .869.295c.284 0 .524-.056.721-.162a1.41 1.41 0 0 0 .48-.417l1.246.8c-.256.379-.59.668-1.01.873-.42.206-.907.306-1.459.306-.41 0-.792-.067-1.158-.194a2.728 2.728 0 0 1-.956-.567 2.684 2.684 0 0 1-.645-.918c-.158-.361-.235-.778-.235-1.245 0-.45.077-.862.23-1.229a2.78 2.78 0 0 1 .623-.934 2.76 2.76 0 0 1 .928-.594 3.158 3.158 0 0 1 1.159-.212c.398 0 .77.067 1.103.206.333.139.623.334.863.595.24.261.426.572.563.945.13.372.196.795.196 1.267Zm-1.65-.7c0-.29-.087-.54-.267-.745-.18-.206-.448-.311-.803-.311a1.33 1.33 0 0 0-.48.083 1.256 1.256 0 0 0-.383.228 1.1 1.1 0 0 0-.262.34.978.978 0 0 0-.11.405h2.306Zm6.021-.633a1.24 1.24 0 0 0-.235-.045 3.17 3.17 0 0 0-.224-.011c-.24 0-.442.044-.606.133a1.214 1.214 0 0 0-.607.734c-.043.15-.065.278-.065.39v2.84H32.87V6.699h1.726v.8h.022c.136-.283.333-.516.59-.694.257-.178.552-.267.885-.267.07 0 .142.006.213.011a.609.609 0 0 1 .17.034l-.077 1.606Zm2.742-3.27a.988.988 0 0 1-.628.923c-.126.05-.262.078-.399.078-.29 0-.535-.1-.732-.295a.963.963 0 0 1-.295-.706c0-.133.027-.261.076-.383a.911.911 0 0 1 .219-.317 1.13 1.13 0 0 1 .328-.217.975.975 0 0 1 .404-.084c.137 0 .273.028.399.078s.235.123.328.212a.988.988 0 0 1 .3.711Zm-1.923 7.305V6.688h1.792v5.537h-1.792Zm6.588-7.06a1.758 1.758 0 0 0-.23-.056 1.392 1.392 0 0 0-.262-.022c-.169 0-.3.028-.404.089a.667.667 0 0 0-.24.239.96.96 0 0 0-.12.34c-.022.127-.033.25-.033.377v.556h1.213v1.357h-1.213v4.18h-1.792v-4.18h-.994V6.688h.994v-.534c0-.339.038-.667.11-.973.07-.305.196-.578.376-.811.18-.234.42-.417.721-.556.3-.14.678-.206 1.131-.206.153 0 .306.011.453.028.148.017.285.044.41.083l-.12 1.446Zm4.218 7.895c-.11.288-.23.544-.366.772a2.352 2.352 0 0 1-.481.578 1.89 1.89 0 0 1-.656.361 2.832 2.832 0 0 1-.89.123c-.17 0-.339-.011-.519-.034a2.894 2.894 0 0 1-.464-.089l.196-1.534a2.014 2.014 0 0 0 .58.1c.278 0 .475-.067.6-.194.126-.128.23-.312.317-.55l.175-.457-2.273-5.448h1.989l1.213 3.558h.032l1.082-3.558h1.901l-2.436 6.371Z" fill="#5A5A5A" fill-opacity=".64"/></svg>