<svg width="78" height="13" fill="none" xmlns="http://www.w3.org/2000/svg"><g clip-path="url(#a)"><path d="M23.468 8.439a.99.99 0 0 1-.074-.19 2.436 2.436 0 0 1-.052-.23 1.563 1.563 0 0 1-.52.358 1.726 1.726 0 0 1-.345.103 1.93 1.93 0 0 1-.412.042c-.24 0-.46-.033-.662-.1a1.592 1.592 0 0 1-.515-.278 1.215 1.215 0 0 1-.459-.962c0-.473.183-.838.55-1.095.37-.26.919-.39 1.65-.39h.67v-.265a.633.633 0 0 0-.22-.51c-.148-.128-.36-.191-.637-.191-.245 0-.424.05-.537.153a.51.51 0 0 0-.169.402h-1.203c0-.19.043-.372.13-.543a1.38 1.38 0 0 1 .385-.452c.17-.13.377-.233.62-.307.244-.078.524-.116.839-.116.283 0 .545.033.788.1.245.066.457.164.636.294.179.13.319.294.42.493.1.197.151.425.151.685v1.925c0 .24.016.44.048.597.032.158.078.293.138.406v.07h-1.22ZM22.32 7.63a1.308 1.308 0 0 0 .619-.15 1.03 1.03 0 0 0 .216-.149.843.843 0 0 0 .143-.174v-.771h-.615c-.187 0-.347.018-.48.054a.887.887 0 0 0-.325.145.564.564 0 0 0-.186.224.653.653 0 0 0-.06.282.5.5 0 0 0 .168.386c.116.102.289.153.52.153Zm6.909-3.762c.182 0 .35.012.502.037.156.022.281.047.377.075l-.178 1.149a3.994 3.994 0 0 0-.489-.08 4.037 4.037 0 0 0-.472-.028c-.337 0-.609.062-.814.187a1.146 1.146 0 0 0-.454.535v2.696h-1.203V3.95h1.12l.057.734a2.07 2.07 0 0 1 .684-.597 1.77 1.77 0 0 1 .87-.22Zm4.956 3.164.407-3.082h1.104l-.84 4.489H33.8l-.615-2.854-.593 2.854h-1.056l-.84-4.489h1.1l.407 3.095.588-3.095h.806l.588 3.082Zm4.601 1.49a2.72 2.72 0 0 1-.982-.17 2.358 2.358 0 0 1-.758-.46 2.07 2.07 0 0 1-.489-.69 2.155 2.155 0 0 1-.169-.85v-.166a2.5 2.5 0 0 1 .169-.937 2.119 2.119 0 0 1 1.19-1.211c.277-.114.579-.17.905-.17.338 0 .638.054.9.161.266.106.49.255.671.448.185.194.325.428.42.701.095.271.143.572.143.9v.49h-3.177c.023.152.07.292.138.42a1.202 1.202 0 0 0 .65.534c.141.05.295.075.463.075a1.885 1.885 0 0 0 .688-.129c.107-.044.206-.098.299-.162.092-.063.173-.138.242-.224l.602.623a1.7 1.7 0 0 1-.295.303 2.04 2.04 0 0 1-.424.26 2.846 2.846 0 0 1-1.186.254ZM38.643 4.8a.956.956 0 0 0-.67.265 1.16 1.16 0 0 0-.213.307 1.628 1.628 0 0 0-.13.399h1.974V5.68a1.05 1.05 0 0 0-.073-.344.83.83 0 0 0-.485-.465 1.062 1.062 0 0 0-.403-.07Zm6.121 3.639a1.003 1.003 0 0 1-.074-.19 2.536 2.536 0 0 1-.051-.23 1.574 1.574 0 0 1-.52.358c-.104.044-.22.078-.346.103a1.931 1.931 0 0 1-.411.042 2.1 2.1 0 0 1-.663-.1 1.595 1.595 0 0 1-.515-.278 1.215 1.215 0 0 1-.459-.962c0-.473.184-.838.55-1.095.37-.26.92-.39 1.65-.39h.67v-.265a.633.633 0 0 0-.22-.51c-.148-.128-.36-.191-.637-.191-.245 0-.424.05-.537.153a.51.51 0 0 0-.168.402h-1.204c0-.19.044-.372.13-.543a1.38 1.38 0 0 1 .385-.452c.17-.13.377-.233.62-.307.245-.078.524-.116.839-.116.283 0 .546.033.788.1.245.066.457.164.636.294.18.13.32.294.42.493.1.197.151.425.151.685v1.925c0 .24.016.44.048.597.032.158.078.293.138.406v.07h-1.22Zm-1.147-.809a1.312 1.312 0 0 0 .619-.15.846.846 0 0 0 .36-.324v-.77h-.615a1.86 1.86 0 0 0-.481.054.886.886 0 0 0-.325.145.56.56 0 0 0-.185.224.649.649 0 0 0-.061.282c0 .155.056.283.168.386.116.102.29.153.52.153Zm5.536-.523.06.324.061-.311 1.03-3.17h1.256l-1.78 4.49h-1.13l-1.786-4.49h1.255l1.035 3.157Zm5.605 1.415a2.72 2.72 0 0 1-.982-.17 2.356 2.356 0 0 1-.758-.46 2.068 2.068 0 0 1-.489-.69 2.158 2.158 0 0 1-.169-.85v-.166a2.5 2.5 0 0 1 .17-.937c.112-.285.27-.53.47-.734.203-.205.443-.364.72-.477a2.35 2.35 0 0 1 .904-.17c.338 0 .638.054.9.161a1.849 1.849 0 0 1 1.092 1.149c.095.271.142.572.142.9v.49h-3.177c.023.152.07.292.138.42a1.205 1.205 0 0 0 .65.534c.141.05.295.075.463.075a1.89 1.89 0 0 0 .688-.129c.107-.044.206-.098.299-.162.092-.063.173-.138.242-.224l.602.623a1.696 1.696 0 0 1-.294.303c-.119.096-.26.183-.425.26a2.843 2.843 0 0 1-1.186.254ZM54.616 4.8a.955.955 0 0 0-.672.265 1.162 1.162 0 0 0-.211.307 1.628 1.628 0 0 0-.13.399h1.973V5.68a1.046 1.046 0 0 0-.073-.344.832.832 0 0 0-.485-.465 1.061 1.061 0 0 0-.402-.07Zm4.41 2.97c0-.107.02-.207.056-.298a.651.651 0 0 1 .165-.24.758.758 0 0 1 .264-.162.938.938 0 0 1 .35-.062c.13 0 .247.02.351.062a.714.714 0 0 1 .424.402c.04.091.061.191.061.299a.72.72 0 0 1-.06.294.701.701 0 0 1-.425.399.999.999 0 0 1-.35.058.998.998 0 0 1-.351-.058.7.7 0 0 1-.429-.398.771.771 0 0 1-.056-.295Zm3.944-1.617c0-.326.049-.627.147-.904.098-.28.24-.521.428-.726a2.01 2.01 0 0 1 .693-.481 2.39 2.39 0 0 1 .94-.174c.351 0 .664.058.939.174.273.116.504.276.692.481.19.205.335.447.433.726.098.277.147.578.147.904v.087c0 .33-.049.634-.147.913a2.095 2.095 0 0 1-.428.722 1.965 1.965 0 0 1-.693.481 2.43 2.43 0 0 1-.935.17c-.352 0-.667-.057-.944-.17a2.009 2.009 0 0 1-.697-.481 2.083 2.083 0 0 1-.428-.722 2.731 2.731 0 0 1-.147-.913v-.087Zm1.203.087c0 .188.019.365.056.531.038.164.097.307.177.432a.904.904 0 0 0 .313.29.95.95 0 0 0 .467.108.909.909 0 0 0 .454-.108.868.868 0 0 0 .308-.29c.08-.125.14-.268.177-.432.038-.166.056-.343.056-.53v-.088c0-.182-.018-.355-.056-.518a1.333 1.333 0 0 0-.177-.432.857.857 0 0 0-.307-.294.928.928 0 0 0-.464-.108.916.916 0 0 0-.459.108.89.89 0 0 0-.312.294 1.35 1.35 0 0 0-.177.432 2.298 2.298 0 0 0-.056.518v.087Zm7.648-2.372c.182 0 .35.012.502.037.156.022.282.047.377.075l-.178 1.149a3.999 3.999 0 0 0-.489-.08 4.036 4.036 0 0 0-.472-.028c-.337 0-.608.062-.813.187a1.146 1.146 0 0 0-.455.535v2.696H69.09V3.95h1.12l.057.734a2.08 2.08 0 0 1 .684-.597 1.77 1.77 0 0 1 .87-.22Zm1.839 2.294c0-.34.044-.652.13-.934.09-.282.217-.524.382-.726a1.7 1.7 0 0 1 .597-.468 1.82 1.82 0 0 1 .792-.166c.274 0 .51.044.706.132.196.089.363.215.502.378l.047-.427h1.095v4.343c0 .304-.054.575-.164.813a1.65 1.65 0 0 1-.455.601 1.944 1.944 0 0 1-.7.37 2.976 2.976 0 0 1-1.356.087 2.755 2.755 0 0 1-.48-.129 2.257 2.257 0 0 1-.45-.224 1.46 1.46 0 0 1-.364-.32l.541-.7c.153.165.326.291.52.377.193.088.402.133.627.133.338 0 .6-.087.788-.262.19-.171.286-.416.286-.734V8.05a1.505 1.505 0 0 1-1.152.473c-.291 0-.554-.057-.787-.17a1.8 1.8 0 0 1-.593-.477 2.189 2.189 0 0 1-.382-.718 3.057 3.057 0 0 1-.13-.908v-.087Zm1.209.087c0 .188.018.363.056.527.04.16.1.301.182.423a.89.89 0 0 0 .307.282.89.89 0 0 0 .441.103c.211 0 .384-.038.52-.116a.86.86 0 0 0 .329-.323v-1.9a.822.822 0 0 0-.33-.324 1.018 1.018 0 0 0-.51-.116.866.866 0 0 0-.753.398 1.344 1.344 0 0 0-.182.432c-.04.163-.06.339-.06.527v.087Z" fill="#5A5A5A" fill-opacity=".64"/><path d="M6.942 12.454c3.433 0 6.216-2.667 6.216-5.957S10.375.54 6.942.54C3.51.54.726 3.207.726 6.497s2.783 5.957 6.216 5.957Z" stroke="#5A5A5A" stroke-opacity=".64" stroke-width="2.5"/><path d="M8.102 8.65a1.038 1.038 0 0 1-.077-.2 2.552 2.552 0 0 1-.054-.239 1.755 1.755 0 0 1-.543.373 1.81 1.81 0 0 1-.362.109 2.02 2.02 0 0 1-.43.043 2.19 2.19 0 0 1-.693-.104 1.665 1.665 0 0 1-.54-.29 1.271 1.271 0 0 1-.48-1.007c0-.495.192-.877.576-1.146.386-.272.961-.408 1.725-.408h.702v-.277a.662.662 0 0 0-.231-.534c-.154-.133-.376-.2-.666-.2-.256 0-.443.054-.561.16a.534.534 0 0 0-.177.422H5.032c0-.2.046-.39.136-.569.094-.18.228-.337.403-.473.178-.136.394-.243.648-.32.256-.082.55-.122.878-.122.296 0 .57.034.824.104.257.07.479.172.666.308.187.136.333.308.44.516.105.206.158.444.158.716v2.014c0 .251.016.46.05.625.033.164.08.306.144.425v.074H8.102Zm-1.2-.847a1.37 1.37 0 0 0 .648-.156c.088-.046.163-.098.226-.156a.883.883 0 0 0 .15-.182v-.807h-.643c-.196 0-.364.018-.503.056a.928.928 0 0 0-.34.152.59.59 0 0 0-.194.234.683.683 0 0 0-.063.295c0 .162.058.297.176.404.12.107.302.16.544.16Z" fill="#5A5A5A" fill-opacity=".64"/></g><defs><clipPath id="a"><path fill="#fff" d="M0 0h78v13H0z"/></clipPath></defs></svg>
