<svg width="37" height="43" fill="none" xmlns="http://www.w3.org/2000/svg"><path fill-rule="evenodd" clip-rule="evenodd" d="m35.05 10.14.994-2.433s-1.266-1.352-2.803-2.884c-1.538-1.532-4.793-.63-4.793-.63L24.74 0H11.717L8.009 4.192s-3.256-.901-4.793.631A130.906 130.906 0 0 0 .412 7.707l.995 2.433-1.266 3.605S3.865 27.801 4.3 29.517c.86 3.38 1.447 4.687 3.889 6.4 2.442 1.712 6.873 4.686 7.597 5.136.723.451 1.627 1.219 2.441 1.219.814 0 1.719-.768 2.442-1.219.723-.45 5.155-3.424 7.597-5.137 2.442-1.712 3.03-3.019 3.889-6.399.436-1.716 4.16-15.771 4.16-15.771l-1.267-3.606Z" fill="url(#a)"/><path fill-rule="evenodd" clip-rule="evenodd" d="M27.407 6.851s4.77 5.746 4.77 6.973c0 1.228-.6 1.553-1.203 2.19L27.398 19.8c-.339.358-1.043.9-.629 1.878.415.977 1.026 2.22.346 3.481-.68 1.261-1.844 2.103-2.59 1.964-.746-.14-2.498-1.052-3.143-1.469-.644-.416-2.687-2.095-2.687-2.737 0-.642 2.112-1.795 2.502-2.057.39-.262 2.169-1.276 2.205-1.674.036-.398.023-.515-.502-1.498-.525-.984-1.47-2.297-1.313-3.17.157-.873 1.682-1.327 2.77-1.736 1.088-.41 3.183-1.183 3.444-1.303.262-.12.195-.235-.598-.31-.793-.075-3.043-.373-4.057-.09-1.014.28-2.747.71-2.887.937-.14.227-.265.235-.12 1.019.144.784.886 4.546.958 5.214.072.669.213 1.11-.51 1.275-.723.165-1.94.451-2.359.451-.418 0-1.635-.286-2.358-.45-.724-.166-.583-.607-.51-1.276.072-.668.814-4.43.958-5.214.144-.784.02-.792-.12-1.02-.14-.227-1.873-.655-2.888-.937-1.014-.282-3.264.016-4.056.09-.793.076-.86.19-.6.31.263.12 2.358.894 3.446 1.304 1.088.41 2.612.863 2.77 1.736.157.873-.788 2.186-1.313 3.17-.525.983-.54 1.1-.503 1.498.037.398 1.816 1.412 2.206 1.674.39.262 2.5 1.415 2.5 2.057 0 .642-2.042 2.32-2.686 2.737-.644.417-2.396 1.33-3.143 1.469-.746.139-1.91-.703-2.59-1.964-.68-1.26-.068-2.504.346-3.481.414-.977-.29-1.52-.628-1.878l-3.576-3.784c-.604-.639-1.203-.963-1.203-2.19 0-1.228 4.769-6.974 4.769-6.974s4.024.766 4.567.766c.543 0 1.718-.45 2.803-.811 1.086-.36 1.81-.363 1.81-.363s.723.002 1.808.363c1.085.36 2.26.811 2.803.811.543 0 4.567-.766 4.567-.766Zm-3.575 21.977c.295.185.115.532-.154.721-.268.19-3.883 2.979-4.233 3.287-.351.308-.866.817-1.217.817-.35 0-.866-.509-1.216-.817-.351-.308-3.965-3.097-4.234-3.287-.27-.189-.45-.536-.154-.72.295-.185 1.219-.65 2.494-1.307 1.274-.657 2.862-1.216 3.11-1.216.248 0 1.836.56 3.11 1.216 1.275.658 2.199 1.122 2.494 1.306Z" fill="#fff"/><mask id="b" style="mask-type:alpha" maskUnits="userSpaceOnUse" x="3" y="0" width="31" height="8"><path d="M28.447 4.192 24.74 0H11.716L8.009 4.192s-3.256-.901-4.793.63c0 0 4.34-.39 5.833 2.029 0 0 4.024.766 4.567.766.542 0 1.718-.45 2.803-.811 1.086-.36 1.81-.364 1.81-.364s.723.003 1.808.364c1.085.36 2.26.81 2.803.81.543 0 4.567-.765 4.567-.765 1.493-2.419 5.834-2.028 5.834-2.028-1.538-1.532-4.794-.631-4.794-.631Z" fill="#fff"/></mask><g mask="url(#b)"><path d="M28.447 4.192 24.74 0H11.716L8.009 4.192s-3.256-.901-4.793.63c0 0 4.34-.39 5.833 2.029 0 0 4.024.766 4.567.766.542 0 1.718-.45 2.803-.811 1.086-.36 1.81-.364 1.81-.364s.723.003 1.808.364c1.085.36 2.26.81 2.803.81.543 0 4.567-.765 4.567-.765 1.493-2.419 5.834-2.028 5.834-2.028-1.538-1.532-4.794-.631-4.794-.631Z" fill="url(#c)"/></g><defs><linearGradient id="a" x1=".141" y1="21.434" x2="36.316" y2="21.434" gradientUnits="userSpaceOnUse"><stop stop-color="#F50"/><stop offset=".41" stop-color="#F50"/><stop offset=".582" stop-color="#FF2000"/><stop offset="1" stop-color="#FF2000"/></linearGradient><linearGradient id="c" x1="3.861" y1="3.862" x2="33.241" y2="3.862" gradientUnits="userSpaceOnUse"><stop stop-color="#FF452A"/><stop offset="1" stop-color="#FF2000"/></linearGradient></defs></svg>