<svg width="114" height="133" viewBox="0 0 114 133" fill="none" xmlns="http://www.w3.org/2000/svg">
<path fill-rule="evenodd" clip-rule="evenodd" d="M109.304 31.9051L112.419 24.2489C112.419 24.2489 108.454 19.9954 103.64 15.1749C98.8266 10.3543 88.6324 13.1899 88.6324 13.1899L77.0224 0H56.6341H36.2458L24.6358 13.1899C24.6358 13.1899 14.4417 10.3543 9.6278 15.1749C4.8139 19.9954 0.849512 24.2489 0.849512 24.2489L3.96439 31.9051L0 43.2476C0 43.2476 11.6596 87.4706 13.0259 92.8711C15.716 103.505 17.5566 107.616 25.2022 113.004C32.8478 118.392 46.7232 127.749 48.9885 129.167C51.2539 130.585 54.0856 133 56.6341 133C59.1827 133 62.0144 130.585 64.2797 129.167C66.5451 127.749 80.4205 118.392 88.0661 113.004C95.7117 107.616 97.5523 103.505 100.242 92.8711C101.608 87.4706 113.268 43.2476 113.268 43.2476L109.304 31.9051Z" fill="url(#paint0_linear_16_201)"/>
<path fill-rule="evenodd" clip-rule="evenodd" d="M85.3754 21.555C85.3754 21.555 100.309 39.6321 100.309 43.4957C100.309 47.3592 98.4302 48.3789 96.5414 50.3874C94.6527 52.3959 86.4036 61.1676 85.3443 62.2939C84.2849 63.4205 82.0796 65.1284 83.3768 68.2025C84.674 71.2766 86.5877 75.1883 84.4597 79.156C82.3313 83.1236 78.6855 85.7718 76.3494 85.3339C74.0132 84.8958 68.5268 82.0248 66.5092 80.7133C64.4916 79.4018 58.097 74.1207 58.097 72.1001C58.097 70.0797 64.7071 66.4518 65.9281 65.6275C67.1497 64.8034 72.7197 61.6131 72.8338 60.3609C72.9476 59.1084 72.9043 58.7411 71.2605 55.6469C69.6167 52.5524 66.6564 48.4231 67.1492 45.6757C67.6419 42.9285 72.4161 41.5 75.8232 40.2115C79.2298 38.9232 85.7894 36.49 86.6087 36.1117C87.4284 35.7331 87.2166 35.3727 84.7341 35.1371C82.2521 34.9015 75.2079 33.9651 72.0321 34.8515C68.8564 35.738 63.4308 37.0866 62.9914 37.8017C62.5519 38.5169 62.1642 38.541 62.6156 41.008C63.0667 43.475 65.3904 55.3126 65.6158 57.4152C65.8415 59.5178 66.2826 60.9078 64.0187 61.4262C61.7545 61.9445 57.9433 62.8446 56.6336 62.8446C55.3239 62.8446 51.5125 61.9445 49.2485 61.4262C46.9843 60.9078 47.4255 59.5178 47.6512 57.4152C47.8768 55.3126 50.2003 43.475 50.6516 41.008C51.1027 38.541 50.7151 38.5169 50.2759 37.8017C49.8364 37.0866 44.4105 35.738 41.2348 34.8515C38.059 33.9651 31.0152 34.9015 28.5329 35.1371C26.0506 35.3727 25.8388 35.7331 26.6583 36.1117C27.4778 36.49 34.0374 38.9232 37.444 40.2115C40.8508 41.5 45.6254 42.9285 46.1181 45.6757C46.6108 48.4231 43.6502 52.5524 42.0067 55.6469C40.3629 58.7411 40.3193 59.1084 40.4334 60.3609C40.5472 61.6131 46.1175 64.8034 47.3388 65.6275C48.5601 66.4518 55.1699 70.0797 55.1699 72.1001C55.1699 74.1207 48.7756 79.4018 46.758 80.7133C44.7404 82.0248 39.254 84.8958 36.9179 85.3339C34.5817 85.7718 30.9359 83.1236 28.8076 79.156C26.6795 75.1883 28.5932 71.2766 29.8901 68.2025C31.1873 65.1284 28.9823 63.4205 27.9227 62.2939C26.8636 61.1676 18.6143 52.3959 16.7255 50.3874C14.8368 48.3789 12.9585 47.3592 12.9585 43.4957C12.9585 39.6321 27.8918 21.555 27.8918 21.555C27.8918 21.555 40.4929 23.9653 42.1919 23.9653C43.8909 23.9653 47.5721 22.5475 50.9702 21.4132C54.3682 20.279 56.6336 20.2708 56.6336 20.2708C56.6336 20.2708 58.899 20.279 62.297 21.4132C65.6951 22.5475 69.3763 23.9653 71.0753 23.9653C72.7743 23.9653 85.3754 21.555 85.3754 21.555ZM74.1805 90.7036C75.1048 91.2832 74.541 92.3758 73.6991 92.9718C72.857 93.5679 61.5412 102.342 60.443 103.312C59.3446 104.282 57.7308 105.884 56.6336 105.884C55.5363 105.884 53.9222 104.282 52.8241 103.312C51.7256 102.342 40.4101 93.5679 39.568 92.9718C38.7258 92.3758 38.1623 91.2832 39.0866 90.7036C40.0112 90.1243 42.9032 88.6619 46.8939 86.5939C50.8841 84.5262 55.8574 82.7681 56.6336 82.7681C57.4097 82.7681 62.3828 84.5262 66.3735 86.5939C70.3639 88.6619 73.256 90.1243 74.1805 90.7036Z" fill="white"/>
<mask id="mask0_16_201" style="mask-type:alpha" maskUnits="userSpaceOnUse" x="9" y="0" width="95" height="24">
<path d="M88.6325 13.1899L77.0226 0H56.6343H36.246L24.636 13.1899C24.636 13.1899 14.4418 10.3543 9.62793 15.1749C9.62793 15.1749 23.2201 13.9462 27.8924 21.555C27.8924 21.555 40.4935 23.9653 42.1926 23.9653C43.8916 23.9653 47.5728 22.5475 50.9708 21.4132C54.3689 20.279 56.6343 20.2708 56.6343 20.2708C56.6343 20.2708 58.8996 20.279 62.2977 21.4132C65.6957 22.5475 69.3769 23.9653 71.076 23.9653C72.775 23.9653 85.3761 21.555 85.3761 21.555C90.0484 13.9462 103.641 15.1749 103.641 15.1749C98.8267 10.3543 88.6325 13.1899 88.6325 13.1899Z" fill="white"/>
</mask>
<g mask="url(#mask0_16_201)">
<path d="M88.6325 13.1899L77.0226 0H56.6343H36.246L24.636 13.1899C24.636 13.1899 14.4418 10.3543 9.62793 15.1749C9.62793 15.1749 23.2201 13.9462 27.8924 21.555C27.8924 21.555 40.4935 23.9653 42.1926 23.9653C43.8916 23.9653 47.5728 22.5475 50.9708 21.4132C54.3689 20.279 56.6343 20.2708 56.6343 20.2708C56.6343 20.2708 58.8996 20.279 62.2977 21.4132C65.6957 22.5475 69.3769 23.9653 71.076 23.9653C72.775 23.9653 85.3761 21.555 85.3761 21.555C90.0484 13.9462 103.641 15.1749 103.641 15.1749C98.8267 10.3543 88.6325 13.1899 88.6325 13.1899Z" fill="url(#paint1_linear_16_201)"/>
</g>
<defs>
<linearGradient id="paint0_linear_16_201" x1="0" y1="67.4383" x2="113.268" y2="67.4383" gradientUnits="userSpaceOnUse">
<stop stop-color="#FF5500"/>
<stop offset="0.409877" stop-color="#FF5500"/>
<stop offset="0.581981" stop-color="#FF2000"/>
<stop offset="1" stop-color="#FF2000"/>
</linearGradient>
<linearGradient id="paint1_linear_16_201" x1="11.6477" y1="12.1517" x2="103.641" y2="12.1517" gradientUnits="userSpaceOnUse">
<stop stop-color="#FF452A"/>
<stop offset="1" stop-color="#FF2000"/>
</linearGradient>
</defs>
</svg>
