<svg width="24" height="27" viewBox="0 0 24 27" fill="none" xmlns="http://www.w3.org/2000/svg">
<path d="M12 0.214355C5.38327 0.214355 0 6.03488 0 13.1891C0 20.3432 5.38327 26.1638 12 26.1638C18.6167 26.1638 24 20.3432 24 13.1891C24 6.03488 18.6167 0.214355 12 0.214355ZM16.3448 16.4758C16.4341 16.5675 16.5056 16.6777 16.5549 16.7998C16.6042 16.9218 16.6304 17.0534 16.632 17.1866C16.6336 17.3198 16.6105 17.452 16.5641 17.5754C16.5177 17.6988 16.4489 17.8109 16.3617 17.9051C16.2746 17.9993 16.1709 18.0737 16.0568 18.1238C15.9427 18.174 15.8204 18.199 15.6972 18.1973C15.574 18.1956 15.4524 18.1673 15.3395 18.1139C15.2266 18.0606 15.1247 17.9834 15.0398 17.8868L12 14.6007L8.96019 17.8868C8.78567 18.066 8.55329 18.1645 8.31259 18.1612C8.07188 18.1578 7.84191 18.053 7.67169 17.8689C7.50147 17.6849 7.40448 17.4362 7.4014 17.176C7.39832 16.9157 7.48939 16.6645 7.65519 16.4758L10.6944 13.1891L7.65519 9.90234C7.48939 9.71365 7.39832 9.46239 7.4014 9.20213C7.40448 8.94188 7.50147 8.69322 7.67169 8.50918C7.84191 8.32514 8.07188 8.22027 8.31259 8.21694C8.55329 8.2136 8.78567 8.31207 8.96019 8.49134L12 11.7774L15.0398 8.49134C15.2143 8.31207 15.4467 8.2136 15.6874 8.21694C15.9281 8.22027 16.1581 8.32514 16.3283 8.50918C16.4985 8.69322 16.5955 8.94188 16.5986 9.20213C16.6017 9.46239 16.5106 9.71365 16.3448 9.90234L13.3056 13.1891L16.3448 16.4758Z" fill="#F5F5F5"/>
</svg>
