<svg width="44" height="16" fill="none" xmlns="http://www.w3.org/2000/svg"><path d="M5.952.105C4.918.382 4.129 1.162 3.875 2.154 3.353 4.203 5.158 6.1 7.216 5.666A2.876 2.876 0 0 0 9.39 3.58c.092-.346.092-1.066 0-1.412A2.937 2.937 0 0 0 7.913.322C7.35.035 6.547-.057 5.952.105ZM16.336.105c-.558.147-.9.346-1.315.761-.425.42-.628.762-.762 1.297-.55 2.15 1.486 4.094 3.6 3.438.822-.258 1.472-.872 1.828-1.735.124-.304.133-.364.133-.97 0-.728-.069-1-.383-1.517C18.814.345 17.482-.206 16.337.105ZM26.72.11c-.554.142-.9.34-1.315.756-.425.42-.628.762-.762 1.297a2.96 2.96 0 0 0 .24 2.063c.217.42.803.988 1.242 1.2 1.121.554 2.414.332 3.3-.558a3.07 3.07 0 0 0 .729-1.283c.092-.365.097-1.053 0-1.417C29.762.658 28.206-.278 26.72.109ZM37.105.11c-.521.133-.895.336-1.264.687a2.86 2.86 0 0 0-.757 1.145c-.107.276-.12.373-.12.932 0 .558.014.655.12.932.18.47.392.799.756 1.145 1.385 1.315 3.619.909 4.491-.817.194-.388.282-.78.282-1.279 0-.466-.083-.844-.286-1.255C39.754.423 38.365-.218 37.105.11ZM11.102 6.668c.342.374.678.89 1.015 1.569l.273.544h1.347l.028.217c.018.125.143 1.427.286 2.899.166 1.73.282 2.746.332 2.88.097.272.296.484.582.623.328.161 1.292.235 2.53.194 1.278-.042 1.527-.097 1.836-.406.305-.305.305-.296.582-3.347.138-1.55.253-2.875.253-2.94v-.12H21.643l.25-.498c.3-.605.71-1.223 1.066-1.615l.263-.286H10.834l.268.286ZM4.59 6.474c-.78.106-1.495.605-2.05 1.421-.244.36-.687 1.279-.876 1.81-.074.217-.222.609-.318.877-.208.535-.494 1.555-.683 2.413-.111.49-.12.587-.074.803.11.536.53.887 1.112.928a1.13 1.13 0 0 0 .965-.378c.216-.236.272-.383.516-1.413.199-.812.425-1.555.596-1.938l.092-.208v.3c.005.166.028 1.039.05 1.939.047 1.61.052 1.643.167 1.878.24.498.535.642 1.477.71.761.06 2.248.029 2.723-.054.521-.093.886-.439.983-.933.023-.134.06-.997.074-1.924.018-.928.041-1.726.055-1.777.056-.185.346.71.73 2.229.129.517.253.914.322 1.024a1.2 1.2 0 0 0 1.007.554c.341 0 .627-.11.853-.327.457-.434.471-.665.13-2.036a18.885 18.885 0 0 0-.965-2.926c-.614-1.477-1.172-2.243-1.943-2.667-.572-.319-.581-.319-2.728-.333-1.066-.004-2.063.005-2.215.028ZM25.359 6.474c-.91.124-1.675.729-2.275 1.79-.328.573-.485.956-1.043 2.511-.236.665-.72 2.539-.72 2.802 0 1.024 1.315 1.546 2.067.821.088-.083.185-.207.226-.281.037-.07.19-.61.337-1.2.231-.919.517-1.823.651-2.059.023-.041.041.093.041.346 0 .227.024 1.099.047 1.93.041 1.384.055 1.532.143 1.744.11.254.337.476.618.6.471.208 3.083.236 3.803.042.25-.065.591-.374.711-.646.088-.19.102-.36.148-2.147.041-1.513.06-1.91.101-1.818.17.397.379 1.07.619 2.026.18.71.314 1.145.387 1.255.411.624 1.325.734 1.856.227.226-.222.346-.466.373-.767.019-.249-.258-1.481-.563-2.469-.166-.558-.65-1.786-.955-2.441-.42-.895-1.03-1.63-1.634-1.966-.563-.314-.577-.314-2.723-.328-1.066-.005-2.063.005-2.215.028ZM31.862 6.704c.425.462.882 1.191 1.172 1.879l.107.244h1.61v.148c0 .083.065 1.399.139 2.917.133 2.755.138 2.77.254 3.014.143.286.433.549.673.614.628.17 3.194.17 3.822 0 .235-.06.572-.365.701-.628.093-.198.106-.305.139-1.49.018-.702.037-1.575.037-1.944.004-.383.023-.646.046-.623.092.102.397 1.085.655 2.1.18.72.314 1.14.388 1.255.305.457.872.651 1.426.49.254-.074.637-.457.71-.711.093-.31.065-.53-.156-1.417-.383-1.55-.743-2.585-1.31-3.803-.412-.886-1.04-1.643-1.62-1.966-.633-.35-.328-.328-4.93-.346l-4.126-.014.263.281Z" fill="#5A5A5A" fill-opacity=".64"/></svg>