<svg width="58" height="58" fill="none" xmlns="http://www.w3.org/2000/svg"><g filter="url(#a)"><circle cx="29" cy="25" r="9" fill="#fff"/></g><g clip-path="url(#b)" stroke="#000" stroke-width=".5" stroke-linecap="round" stroke-linejoin="round"><path d="M32.273 23.773H28.59a.818.818 0 0 0-.818.818v3.682c0 .452.366.818.818.818h3.682a.818.818 0 0 0 .818-.818V24.59a.818.818 0 0 0-.818-.818Z"/><path d="M26.136 26.227h-.409a.818.818 0 0 1-.818-.818v-3.682a.819.819 0 0 1 .818-.818h3.682a.818.818 0 0 1 .818.818v.41"/></g><defs><clipPath id="b"><path fill="#fff" transform="translate(24.09 20.091)" d="M0 0h9.818v9.818H0z"/></clipPath><filter id="a" x="0" y="0" width="58" height="58" filterUnits="userSpaceOnUse" color-interpolation-filters="sRGB"><feFlood flood-opacity="0" result="BackgroundImageFix"/><feColorMatrix in="SourceAlpha" values="0 0 0 0 0 0 0 0 0 0 0 0 0 0 0 0 0 0 127 0" result="hardAlpha"/><feMorphology radius="4" operator="dilate" in="SourceAlpha" result="effect1_dropShadow_1:961"/><feOffset dy="4"/><feGaussianBlur stdDeviation="8"/><feComposite in2="hardAlpha" operator="out"/><feColorMatrix values="0 0 0 0 0.770833 0 0 0 0 0.770833 0 0 0 0 0.770833 0 0 0 0.25 0"/><feBlend in2="BackgroundImageFix" result="effect1_dropShadow_1:961"/><feBlend in="SourceGraphic" in2="effect1_dropShadow_1:961" result="shape"/></filter></defs></svg>