<svg width="20" height="22" viewBox="0 0 20 22" fill="none" xmlns="http://www.w3.org/2000/svg">
<path d="M12.8751 10.45C12.8751 11.121 12.3841 11.671 11.7623 11.671C11.1513 11.671 10.6495 11.121 10.6495 10.45C10.6495 9.779 11.1404 9.229 11.7623 9.229C12.3841 9.229 12.8751 9.779 12.8751 10.45ZM7.78018 9.229C7.15831 9.229 6.66737 9.779 6.66737 10.45C6.66737 11.121 7.16922 11.671 7.78018 11.671C8.40204 11.671 8.89298 11.121 8.89298 10.45C8.90389 9.779 8.40204 9.229 7.78018 9.229ZM19.301 2.266V22C16.5525 19.551 17.4315 20.3617 14.2388 17.369L14.817 19.404H2.44526C1.21245 19.404 0.20874 18.392 0.20874 17.138V2.266C0.20874 1.012 1.21245 0 2.44526 0H17.0645C18.2973 0 19.301 1.012 19.301 2.266ZM16.1917 12.694C16.1917 9.152 14.6207 6.281 14.6207 6.281C13.0496 5.093 11.555 5.126 11.555 5.126L11.4022 5.302C13.2569 5.874 14.1188 6.699 14.1188 6.699C11.5272 5.26689 8.48301 5.26664 5.96914 6.38C5.56548 6.567 5.32546 6.699 5.32546 6.699C5.32546 6.699 6.23098 5.83 8.19475 5.258L8.08565 5.126C8.08565 5.126 6.591 5.093 5.01998 6.281C5.01998 6.281 3.44897 9.152 3.44897 12.694C3.44897 12.694 4.36539 14.289 6.77647 14.366C6.77647 14.366 7.18013 13.871 7.50743 13.453C6.12188 13.035 5.59821 12.155 5.59821 12.155C5.7587 12.2683 6.02335 12.4151 6.04551 12.43C7.88697 13.4698 10.5027 13.8104 12.8533 12.815C13.2351 12.672 13.6606 12.463 14.1079 12.166C14.1079 12.166 13.5624 13.068 12.1332 13.475C12.4605 13.893 12.8533 14.366 12.8533 14.366C15.2643 14.289 16.1917 12.694 16.1917 12.694Z" fill="#5865F2"/>
</svg>
