<svg width="40" height="46" fill="none" xmlns="http://www.w3.org/2000/svg"><path d="M26.537 21.85c0 1.403-1.028 2.553-2.331 2.553-1.28 0-2.332-1.15-2.332-2.553s1.029-2.553 2.332-2.553 2.331 1.15 2.331 2.553Zm-10.674-2.553c-1.303 0-2.332 1.15-2.332 2.553s1.052 2.553 2.332 2.553c1.303 0 2.331-1.15 2.331-2.553.023-1.403-1.028-2.553-2.331-2.553ZM40 4.738V46c-5.758-5.12-3.917-3.426-10.606-9.683l1.212 4.255H4.686C2.103 40.572 0 38.456 0 35.834V4.738C0 2.116 2.103 0 4.686 0h30.628C37.897 0 40 2.116 40 4.738Zm-6.514 21.804c0-7.406-3.292-13.409-3.292-13.409-3.291-2.484-6.423-2.415-6.423-2.415l-.32.368c3.886 1.196 5.692 2.921 5.692 2.921-5.43-2.994-11.808-2.995-17.074-.667-.846.391-1.349.667-1.349.667s1.897-1.817 6.011-3.013l-.228-.276s-3.132-.069-6.423 2.415c0 0-3.291 6.003-3.291 13.409 0 0 1.92 3.335 6.971 3.496 0 0 .846-1.035 1.531-1.909-2.902-.874-4-2.714-4-2.714.337.237.891.544.938.575 3.858 2.174 9.338 2.886 14.262.805.8-.299 1.692-.736 2.629-1.357 0 0-1.143 1.886-4.137 2.737.686.874 1.508 1.863 1.508 1.863 5.052-.161 6.995-3.496 6.995-3.496Z" fill="#5865F2"/></svg>
