<svg width="111" height="111" viewBox="0 0 111 111" fill="none" xmlns="http://www.w3.org/2000/svg">
<path d="M100.182 82.6143C98.7228 83.3792 97.1985 84.0634 95.6148 84.6583C90.8533 86.4469 85.595 87.4609 80.0488 87.4609C59.5307 87.4609 41.657 73.3465 41.657 55.2352C41.657 50.1424 44.6034 45.7281 48.7789 43.4029C30.2233 44.1808 25.4531 63.5217 25.4531 74.8517C25.4531 106.882 54.9762 110.133 61.3376 110.133C64.7658 110.133 69.9403 109.135 73.058 108.157C73.248 108.093 73.4372 108.03 73.6263 107.964C85.6625 103.814 95.8212 95.6474 102.499 85.0621C103.456 83.5439 101.772 81.7804 100.182 82.6143Z" fill="url(#paint0_linear_0:426)"/>
<path opacity="0.35" d="M100.182 82.6143C98.7228 83.3792 97.1985 84.0634 95.6148 84.6583C90.8533 86.4469 85.595 87.4609 80.0488 87.4609C59.5307 87.4609 41.657 73.3465 41.657 55.2352C41.657 50.1424 44.6034 45.7281 48.7789 43.4029C30.2233 44.1808 25.4531 63.5217 25.4531 74.8517C25.4531 106.882 54.9762 110.133 61.3376 110.133C64.7658 110.133 69.9403 109.135 73.058 108.157C73.248 108.093 73.4372 108.03 73.6263 107.964C85.6625 103.814 95.8212 95.6474 102.499 85.0621C103.456 83.5439 101.772 81.7804 100.182 82.6143Z" fill="url(#paint1_radial_0:426)"/>
<path d="M45.8357 104.675C41.9791 102.285 38.6313 99.1327 35.9778 95.4072C31.8717 89.6423 29.4169 82.5509 29.4169 74.8518C29.4169 63.5217 34.6926 53.4864 42.825 47.1282C44.6719 45.6841 47.0368 44.2277 48.7792 43.4029C50.1323 42.7624 52.4462 41.609 55.5197 41.6526C60.615 41.7248 64.4651 44.3225 66.6565 47.2729C68.3403 49.5398 69.3786 52.3326 69.4134 55.3643C69.4145 55.2731 80.0208 20.8483 34.7045 20.8483C15.6728 20.8483 0 38.9159 0 54.762C0 64.8135 2.33244 72.8384 5.2528 79.0576C11.757 92.9106 23.8184 103.633 38.5726 108.357C43.9159 110.068 49.6078 111 55.5197 111C61.6509 111 67.5435 109.992 73.0582 108.157C69.9405 109.135 66.6353 109.67 63.207 109.67C56.8457 109.67 50.9167 107.825 45.8357 104.675Z" fill="url(#paint2_linear_0:426)"/>
<path opacity="0.41" d="M45.8357 104.675C41.9791 102.285 38.6313 99.1327 35.9778 95.4072C31.8717 89.6423 29.4169 82.5509 29.4169 74.8518C29.4169 63.5217 34.6926 53.4864 42.825 47.1282C44.6719 45.6841 47.0368 44.2277 48.7792 43.4029C50.1323 42.7624 52.4462 41.609 55.5197 41.6526C60.615 41.7248 64.4651 44.3225 66.6565 47.2729C68.3403 49.5398 69.3786 52.3326 69.4134 55.3643C69.4145 55.2731 80.0208 20.8483 34.7045 20.8483C15.6728 20.8483 0 38.9159 0 54.762C0 64.8135 2.33244 72.8384 5.2528 79.0576C11.757 92.9106 23.8184 103.633 38.5726 108.357C43.9159 110.068 49.6078 111 55.5197 111C61.6509 111 67.5435 109.992 73.0582 108.157C69.9405 109.135 66.6353 109.67 63.207 109.67C56.8457 109.67 50.9167 107.825 45.8357 104.675Z" fill="url(#paint3_radial_0:426)"/>
<path d="M66.0424 64.5437C65.691 64.9986 64.6099 65.6267 64.6099 66.9995C64.6099 68.1287 65.3472 69.2183 66.6573 70.1326C72.8926 74.4842 84.6453 73.8978 84.6766 73.8977C89.5287 73.8809 93.8934 72.5466 97.803 70.261C99.5816 69.2209 101.228 67.9857 102.712 66.5753C107.806 61.7352 110.911 54.9142 110.997 47.3356C111.108 37.6163 107.546 31.1549 106.082 28.2938C96.8928 10.3351 77.0573 0 55.4903 0C25.0891 0 0.410401 24.4313 0.00244141 54.7196C0.208537 38.8749 15.956 26.0801 34.6752 26.0801C36.1929 26.0801 44.8481 26.2281 52.8884 30.4479C59.9709 34.1649 63.6841 38.6565 66.2649 43.1121C68.9446 47.7385 69.4213 53.5817 69.4213 55.9114C69.4213 58.241 68.2468 61.6903 66.0424 64.5437Z" fill="url(#paint4_radial_0:426)"/>
<path d="M66.0424 64.5437C65.691 64.9986 64.6099 65.6267 64.6099 66.9995C64.6099 68.1287 65.3472 69.2183 66.6573 70.1326C72.8926 74.4842 84.6453 73.8978 84.6766 73.8977C89.5287 73.8809 93.8934 72.5466 97.803 70.261C99.5816 69.2209 101.228 67.9857 102.712 66.5753C107.806 61.7352 110.911 54.9142 110.997 47.3356C111.108 37.6163 107.546 31.1549 106.082 28.2938C96.8928 10.3351 77.0573 0 55.4903 0C25.0891 0 0.410401 24.4313 0.00244141 54.7196C0.208537 38.8749 15.956 26.0801 34.6752 26.0801C36.1929 26.0801 44.8481 26.2281 52.8884 30.4479C59.9709 34.1649 63.6841 38.6565 66.2649 43.1121C68.9446 47.7385 69.4213 53.5817 69.4213 55.9114C69.4213 58.241 68.2468 61.6903 66.0424 64.5437Z" fill="url(#paint5_radial_0:426)"/>
<defs>
<linearGradient id="paint0_linear_0:426" x1="25.4531" y1="76.768" x2="102.778" y2="76.768" gradientUnits="userSpaceOnUse">
<stop stop-color="#0C59A4"/>
<stop offset="1" stop-color="#114A8B"/>
</linearGradient>
<radialGradient id="paint1_radial_0:426" cx="0" cy="0" r="1" gradientUnits="userSpaceOnUse" gradientTransform="translate(68.1625 77.3458) scale(41.3579 39.3343)">
<stop offset="0.71659" stop-opacity="0"/>
<stop offset="0.9459" stop-opacity="0.53"/>
<stop offset="1"/>
</radialGradient>
<linearGradient id="paint2_linear_0:426" x1="66.2198" y1="43.2223" x2="17.9195" y2="95.8327" gradientUnits="userSpaceOnUse">
<stop stop-color="#1B9DE2"/>
<stop offset="0.16164" stop-color="#1595DF"/>
<stop offset="0.66749" stop-color="#0680D7"/>
<stop offset="1" stop-color="#0078D4"/>
</linearGradient>
<radialGradient id="paint3_radial_0:426" cx="0" cy="0" r="1" gradientUnits="userSpaceOnUse" gradientTransform="translate(30.9173 86.1393) rotate(-81.464) scale(62.1059 50.0454)">
<stop offset="0.76293" stop-opacity="0"/>
<stop offset="0.9459" stop-opacity="0.5"/>
<stop offset="1"/>
</radialGradient>
<radialGradient id="paint4_radial_0:426" cx="0" cy="0" r="1" gradientUnits="userSpaceOnUse" gradientTransform="translate(10.9412 20.2945) rotate(92.129) scale(87.773 186.942)">
<stop stop-color="#35C1F1"/>
<stop offset="0.11079" stop-color="#34C1ED"/>
<stop offset="0.23164" stop-color="#2FC2DF"/>
<stop offset="0.31446" stop-color="#2BC3D2"/>
<stop offset="0.67338" stop-color="#36C752"/>
</radialGradient>
<radialGradient id="paint5_radial_0:426" cx="0" cy="0" r="1" gradientUnits="userSpaceOnUse" gradientTransform="translate(105.133 33.6359) rotate(73.6747) scale(42.2051 34.4582)">
<stop stop-color="#66EB6E"/>
<stop offset="1" stop-color="#66EB6E" stop-opacity="0"/>
</radialGradient>
</defs>
</svg>
