<svg width="44" height="43" fill="none" xmlns="http://www.w3.org/2000/svg"><path d="M39.089 31.6c-.561.293-1.147.555-1.756.782a17.075 17.075 0 0 1-5.983 1.072c-7.886 0-14.756-5.399-14.756-12.326 0-1.948 1.132-3.637 2.737-4.526-7.132.298-8.965 7.695-8.965 12.03 0 12.251 11.347 13.494 13.792 13.494 1.318 0 3.307-.381 4.505-.756l.219-.073a21.372 21.372 0 0 0 11.097-8.76c.368-.581-.279-1.255-.89-.936Z" fill="url(#a)"/><path opacity=".35" d="M39.089 31.6c-.561.293-1.147.555-1.756.782a17.075 17.075 0 0 1-5.983 1.072c-7.886 0-14.756-5.399-14.756-12.326 0-1.948 1.132-3.637 2.737-4.526-7.132.298-8.965 7.695-8.965 12.03 0 12.251 11.347 13.494 13.792 13.494 1.318 0 3.307-.381 4.505-.756l.219-.073a21.372 21.372 0 0 0 11.097-8.76c.368-.581-.279-1.255-.89-.936Z" fill="url(#b)"/><path d="M18.2 40.04a13.16 13.16 0 0 1-3.789-3.546 13.464 13.464 0 0 1-2.522-7.863c0-4.333 2.028-8.172 5.154-10.604.71-.552 1.619-1.11 2.288-1.425.52-.245 1.41-.686 2.591-.67a5.401 5.401 0 0 1 4.28 2.15 5.265 5.265 0 0 1 1.06 3.095c.001-.035 4.078-13.202-13.34-13.202-7.315 0-13.34 6.91-13.34 12.972 0 3.845.897 6.914 2.02 9.293a21.354 21.354 0 0 0 19.32 12.219c2.357 0 4.622-.386 6.741-1.088a12.682 12.682 0 0 1-3.786.579c-2.445 0-4.724-.706-6.677-1.91Z" fill="url(#c)"/><path opacity=".41" d="M18.2 40.04a13.16 13.16 0 0 1-3.789-3.546 13.464 13.464 0 0 1-2.522-7.863c0-4.333 2.028-8.172 5.154-10.604.71-.552 1.619-1.11 2.288-1.425.52-.245 1.41-.686 2.591-.67a5.401 5.401 0 0 1 4.28 2.15 5.265 5.265 0 0 1 1.06 3.095c.001-.035 4.078-13.202-13.34-13.202-7.315 0-13.34 6.91-13.34 12.972 0 3.845.897 6.914 2.02 9.293a21.354 21.354 0 0 0 19.32 12.219c2.357 0 4.622-.386 6.741-1.088a12.682 12.682 0 0 1-3.786.579c-2.445 0-4.724-.706-6.677-1.91Z" fill="url(#d)"/><path d="M25.966 24.688c-.135.174-.55.415-.55.94 0 .432.283.848.787 1.198 2.396 1.665 6.913 1.44 6.926 1.44 1.864-.006 3.542-.517 5.045-1.39a10.24 10.24 0 0 0 1.887-1.41c1.958-1.852 3.151-4.461 3.184-7.36.043-3.718-1.326-6.19-1.89-7.284C37.825 3.954 30.2 0 21.91 0 10.225 0 .74 9.345.583 20.93.662 14.87 6.715 9.976 13.91 9.976c.583 0 3.91.056 7 1.67 2.723 1.422 4.15 3.14 5.142 4.845 1.03 1.77 1.213 4.004 1.213 4.895 0 .892-.452 2.21-1.299 3.302Z" fill="url(#e)"/><path d="M25.966 24.688c-.135.174-.55.415-.55.94 0 .432.283.848.787 1.198 2.396 1.665 6.913 1.44 6.926 1.44 1.864-.006 3.542-.517 5.045-1.39a10.24 10.24 0 0 0 1.887-1.41c1.958-1.852 3.151-4.461 3.184-7.36.043-3.718-1.326-6.19-1.89-7.284C37.825 3.954 30.2 0 21.91 0 10.225 0 .74 9.345.583 20.93.662 14.87 6.715 9.976 13.91 9.976c.583 0 3.91.056 7 1.67 2.723 1.422 4.15 3.14 5.142 4.845 1.03 1.77 1.213 4.004 1.213 4.895 0 .892-.452 2.21-1.299 3.302Z" fill="url(#f)"/><defs><radialGradient id="b" cx="0" cy="0" r="1" gradientUnits="userSpaceOnUse" gradientTransform="matrix(15.8965 0 0 15.0454 26.782 29.585)"><stop offset=".717" stop-opacity="0"/><stop offset=".946" stop-opacity=".53"/><stop offset="1"/></radialGradient><radialGradient id="d" cx="0" cy="0" r="1" gradientUnits="userSpaceOnUse" gradientTransform="rotate(-81.423 25.379 9.231) scale(23.7587 19.2336)"><stop offset=".763" stop-opacity="0"/><stop offset=".946" stop-opacity=".5"/><stop offset="1"/></radialGradient><radialGradient id="e" cx="0" cy="0" r="1" gradientUnits="userSpaceOnUse" gradientTransform="matrix(-1.25334 33.5505 -71.80302 -2.68234 4.787 7.763)"><stop stop-color="#35C1F1"/><stop offset=".111" stop-color="#34C1ED"/><stop offset=".232" stop-color="#2FC2DF"/><stop offset=".314" stop-color="#2BC3D2"/><stop offset=".673" stop-color="#36C752"/></radialGradient><radialGradient id="f" cx="0" cy="0" r="1" gradientUnits="userSpaceOnUse" gradientTransform="matrix(4.5599 15.4928 -12.70072 3.73812 40.991 12.866)"><stop stop-color="#66EB6E"/><stop offset="1" stop-color="#66EB6E" stop-opacity="0"/></radialGradient><linearGradient id="a" x1="10.366" y1="29.364" x2="40.087" y2="29.364" gradientUnits="userSpaceOnUse"><stop stop-color="#0C59A4"/><stop offset="1" stop-color="#114A8B"/></linearGradient><linearGradient id="c" x1="26.035" y1="16.533" x2="7.568" y2="36.746" gradientUnits="userSpaceOnUse"><stop stop-color="#1B9DE2"/><stop offset=".162" stop-color="#1595DF"/><stop offset=".667" stop-color="#0680D7"/><stop offset="1" stop-color="#0078D4"/></linearGradient></defs></svg>