<svg width="42" height="43" fill="none" xmlns="http://www.w3.org/2000/svg"><path d="M40.474 14.25c-.898-2.15-2.72-4.473-4.147-5.207a21.298 21.298 0 0 1 2.093 6.242l.004.034c-2.337-5.795-6.298-8.136-9.536-13.226a24.916 24.916 0 0 1-.487-.787 6.498 6.498 0 0 1-.227-.425 3.73 3.73 0 0 1-.308-.815.053.053 0 0 0-.047-.053.074.074 0 0 0-.04 0c-.002 0-.006.005-.01.006l-.014.008.008-.014C22.57 3.04 20.807 8.638 20.648 11.44a10.37 10.37 0 0 0-5.69 2.182 6.172 6.172 0 0 0-.534-.402 9.493 9.493 0 0 1-.058-5.028c-1.906.92-3.6 2.222-4.975 3.827h-.01c-.819-1.034-.761-4.441-.714-5.153a3.7 3.7 0 0 0-.69.365 15.03 15.03 0 0 0-2.02 1.722 17.98 17.98 0 0 0-1.933 2.307v.004-.004a17.33 17.33 0 0 0-2.773 6.23l-.028.137c-.039.18-.18 1.087-.203 1.284 0 .015-.003.03-.005.045-.18.936-.293 1.884-.335 2.836v.106A20.517 20.517 0 0 0 6.139 35.79a20.71 20.71 0 0 0 13.458 6.569 20.742 20.742 0 0 0 14.38-4.21 20.554 20.554 0 0 0 7.741-12.773c.035-.265.063-.528.094-.796a21.061 21.061 0 0 0-1.34-10.333l.002.003ZM16.65 30.353c.097.046.188.096.287.14l.014.009c-.1-.048-.2-.098-.3-.15Zm21.775-15.028v-.02l.003.022-.003-.002Z" fill="url(#a)"/><path d="M40.473 14.25c-.898-2.151-2.72-4.473-4.146-5.207a21.301 21.301 0 0 1 2.093 6.242v.02l.004.02a18.546 18.546 0 0 1-.643 13.885c-2.37 5.058-8.102 10.243-17.077 9.989-9.696-.274-18.24-7.436-19.834-16.814-.29-1.48 0-2.23.146-3.432-.2.934-.31 1.884-.332 2.839v.106A20.517 20.517 0 0 0 6.143 35.79 20.71 20.71 0 0 0 19.6 42.36a20.742 20.742 0 0 0 14.38-4.21 20.555 20.555 0 0 0 7.741-12.773c.035-.265.063-.528.094-.796a21.06 21.06 0 0 0-1.34-10.333l-.003.002Z" fill="url(#b)"/><path d="M40.473 14.25c-.898-2.151-2.72-4.473-4.146-5.207a21.301 21.301 0 0 1 2.093 6.242v.02l.004.02a18.546 18.546 0 0 1-.643 13.885c-2.37 5.058-8.102 10.243-17.077 9.989-9.696-.274-18.24-7.436-19.834-16.814-.29-1.48 0-2.23.146-3.432-.2.934-.31 1.884-.332 2.839v.106A20.517 20.517 0 0 0 6.143 35.79 20.71 20.71 0 0 0 19.6 42.36a20.742 20.742 0 0 0 14.38-4.21 20.555 20.555 0 0 0 7.741-12.773c.035-.265.063-.528.094-.796a21.06 21.06 0 0 0-1.34-10.333l-.003.002Z" fill="url(#c)"/><path d="m30.426 16.664.129.094a11.207 11.207 0 0 0-1.92-2.491C22.208 7.87 26.95.404 27.75.02l.01-.01c-5.192 3.025-6.955 8.624-7.115 11.427.241-.017.48-.037.726-.037a10.47 10.47 0 0 1 5.241 1.417 10.405 10.405 0 0 1 3.815 3.846v.001Z" fill="url(#d)"/><path d="M21.381 17.943c-.034.512-1.85 2.276-2.486 2.276-5.877 0-6.832 3.539-6.832 3.539.26 2.98 2.347 5.435 4.87 6.73.114.059.231.113.348.165.202.09.405.172.607.248a9.233 9.233 0 0 0 2.69.516c10.303.48 12.298-12.26 4.863-15.96a7.163 7.163 0 0 1 4.983 1.205 10.406 10.406 0 0 0-3.814-3.847 10.47 10.47 0 0 0-5.241-1.417c-.246 0-.485.02-.727.037a10.37 10.37 0 0 0-5.69 2.182c.315.265.67.62 1.42 1.355 1.403 1.375 5 2.8 5.008 2.967l.001.004Z" fill="url(#e)"/><path d="M21.381 17.943c-.034.512-1.85 2.276-2.486 2.276-5.877 0-6.832 3.539-6.832 3.539.26 2.98 2.347 5.435 4.87 6.73.114.059.231.113.348.165.202.09.405.172.607.248a9.233 9.233 0 0 0 2.69.516c10.303.48 12.298-12.26 4.863-15.96a7.163 7.163 0 0 1 4.983 1.205 10.406 10.406 0 0 0-3.814-3.847 10.47 10.47 0 0 0-5.241-1.417c-.246 0-.485.02-.727.037a10.37 10.37 0 0 0-5.69 2.182c.315.265.67.62 1.42 1.355 1.403 1.375 5 2.8 5.008 2.967l.001.004Z" fill="url(#f)"/><path d="M13.99 12.938c.167.106.305.199.426.282a9.493 9.493 0 0 1-.058-5.028 15.321 15.321 0 0 0-4.976 3.827c.101-.002 3.1-.056 4.607.92Z" fill="url(#g)"/><path d="M.866 22.386C2.462 31.764 11.005 38.929 20.701 39.2c8.975.252 14.708-4.933 17.076-9.989a18.547 18.547 0 0 0 .643-13.884v-.02c0-.015-.003-.024 0-.02l.004.035c.733 4.764-1.702 9.378-5.509 12.504l-.012.027c-7.418 6.013-14.517 3.627-15.951 2.653-.1-.047-.2-.097-.301-.149-4.325-2.057-6.112-5.976-5.728-9.34a5.326 5.326 0 0 1-2.904-.811 5.29 5.29 0 0 1-1.992-2.255 7.825 7.825 0 0 1 7.6-.303 10.339 10.339 0 0 0 7.76.303c-.009-.167-3.606-1.592-5.009-2.967-.749-.735-1.105-1.089-1.42-1.355a6.173 6.173 0 0 0-.533-.402c-.123-.083-.26-.174-.427-.282-1.507-.975-4.506-.922-4.605-.919h-.01c-.819-1.033-.761-4.44-.714-5.152a3.7 3.7 0 0 0-.69.364c-.723.514-1.4 1.09-2.02 1.722a17.98 17.98 0 0 0-1.94 2.302v.003-.003a17.33 17.33 0 0 0-2.774 6.23c-.01.043-.744 3.238-.382 4.895l.003-.001Z" fill="url(#h)"/><path d="M28.634 14.265a11.24 11.24 0 0 1 1.92 2.495c.114.085.22.17.31.252 4.686 4.3 2.23 10.377 2.048 10.806 3.806-3.12 6.24-7.738 5.509-12.504-2.338-5.801-6.304-8.142-9.536-13.231a24.915 24.915 0 0 1-.487-.788 6.505 6.505 0 0 1-.227-.425 3.73 3.73 0 0 1-.309-.814.053.053 0 0 0-.047-.053.074.074 0 0 0-.039 0l-.01.005-.015.008c-.8.378-5.54 7.85.886 14.24l-.003.01Z" fill="url(#i)"/><path d="M30.863 17.015a4.275 4.275 0 0 0-.31-.253c-.042-.031-.084-.063-.128-.094a7.162 7.162 0 0 0-4.984-1.204c7.434 3.699 5.44 16.437-4.863 15.96a9.232 9.232 0 0 1-2.69-.517 10.966 10.966 0 0 1-.607-.248 8.49 8.49 0 0 1-.349-.165l.015.009c1.437.976 8.533 3.36 15.951-2.654l.012-.026c.185-.43 2.64-6.507-2.048-10.806l.001-.002Z" fill="url(#j)"/><path d="M12.064 23.755s.954-3.538 6.832-3.538c.635 0 2.453-1.765 2.485-2.277a10.34 10.34 0 0 1-7.76-.303 7.828 7.828 0 0 0-7.599.303 5.29 5.29 0 0 0 1.992 2.255 5.327 5.327 0 0 0 2.904.81c-.383 3.364 1.404 7.282 5.728 9.341.097.046.187.096.287.14-2.525-1.297-4.609-3.752-4.87-6.73v-.001Z" fill="url(#k)"/><path d="M40.474 14.25c-.898-2.15-2.72-4.473-4.147-5.207a21.3 21.3 0 0 1 2.093 6.242l.004.034c-2.337-5.795-6.298-8.136-9.535-13.226a24.915 24.915 0 0 1-.487-.787 6.451 6.451 0 0 1-.228-.425 3.73 3.73 0 0 1-.308-.815.053.053 0 0 0-.047-.053.074.074 0 0 0-.04 0c-.002 0-.006.005-.01.006l-.014.008.008-.014C22.57 3.04 20.808 8.638 20.648 11.44c.241-.016.48-.037.727-.037a10.47 10.47 0 0 1 5.24 1.417 10.404 10.404 0 0 1 3.815 3.847 7.163 7.163 0 0 0-4.983-1.205c7.434 3.7 5.44 16.437-4.864 15.96a9.232 9.232 0 0 1-2.69-.517 10.966 10.966 0 0 1-.606-.247c-.117-.053-.234-.106-.349-.166l.014.01c-.1-.048-.2-.098-.3-.15.096.046.187.096.286.14-2.524-1.298-4.608-3.752-4.869-6.73 0 0 .954-3.538 6.832-3.538.635 0 2.453-1.764 2.486-2.276-.008-.167-3.605-1.592-5.008-2.967-.75-.735-1.105-1.089-1.42-1.355a6.156 6.156 0 0 0-.534-.402 9.493 9.493 0 0 1-.058-5.028c-1.906.92-3.6 2.222-4.975 3.827h-.01c-.819-1.034-.761-4.44-.714-5.153-.242.097-.474.22-.69.365a15.03 15.03 0 0 0-2.02 1.722 17.985 17.985 0 0 0-1.933 2.307v.004-.004a17.33 17.33 0 0 0-2.773 6.23l-.028.137a34.9 34.9 0 0 0-.238 1.297 23.82 23.82 0 0 0-.305 2.868v.106a20.516 20.516 0 0 0 5.46 13.892 20.71 20.71 0 0 0 13.457 6.569 20.742 20.742 0 0 0 14.38-4.21A20.554 20.554 0 0 0 41.72 25.38c.035-.265.063-.528.094-.796a21.06 21.06 0 0 0-1.34-10.333v-.001Zm-2.05 1.056.003.022-.004-.021Z" fill="url(#l)"/><defs><radialGradient id="b" cx="0" cy="0" r="1" gradientUnits="userSpaceOnUse" gradientTransform="matrix(43.0919 0 0 42.8837 36.41 4.786)"><stop offset=".129" stop-color="#FFBD4F"/><stop offset=".186" stop-color="#FFAC31"/><stop offset=".247" stop-color="#FF9D17"/><stop offset=".283" stop-color="#FF980E"/><stop offset=".403" stop-color="#FF563B"/><stop offset=".467" stop-color="#FF3750"/><stop offset=".71" stop-color="#F5156C"/><stop offset=".782" stop-color="#EB0878"/><stop offset=".86" stop-color="#E50080"/></radialGradient><radialGradient id="c" cx="0" cy="0" r="1" gradientUnits="userSpaceOnUse" gradientTransform="matrix(43.0919 0 0 42.8837 20.41 22.3)"><stop offset=".3" stop-color="#960E18"/><stop offset=".351" stop-color="#B11927" stop-opacity=".74"/><stop offset=".435" stop-color="#DB293D" stop-opacity=".343"/><stop offset=".497" stop-color="#F5334B" stop-opacity=".094"/><stop offset=".53" stop-color="#FF3750" stop-opacity="0"/></radialGradient><radialGradient id="d" cx="0" cy="0" r="1" gradientUnits="userSpaceOnUse" gradientTransform="matrix(31.215 0 0 31.0642 25.744 -4.767)"><stop offset=".132" stop-color="#FFF44F"/><stop offset=".252" stop-color="#FFDC3E"/><stop offset=".506" stop-color="#FF9D12"/><stop offset=".526" stop-color="#FF980E"/></radialGradient><radialGradient id="e" cx="0" cy="0" r="1" gradientUnits="userSpaceOnUse" gradientTransform="matrix(20.5167 0 0 20.4176 15.61 33.446)"><stop offset=".353" stop-color="#3A8EE6"/><stop offset=".472" stop-color="#5C79F0"/><stop offset=".669" stop-color="#9059FF"/><stop offset="1" stop-color="#C139E6"/></radialGradient><radialGradient id="f" cx="0" cy="0" r="1" gradientUnits="userSpaceOnUse" gradientTransform="matrix(10.57501 -2.54438 2.96603 12.3275 22.495 18.62)"><stop offset=".206" stop-color="#9059FF" stop-opacity="0"/><stop offset=".278" stop-color="#8C4FF3" stop-opacity=".064"/><stop offset=".747" stop-color="#7716A8" stop-opacity=".45"/><stop offset=".975" stop-color="#6E008B" stop-opacity=".6"/></radialGradient><radialGradient id="g" cx="0" cy="0" r="1" gradientUnits="userSpaceOnUse" gradientTransform="matrix(14.7622 0 0 14.6913 19.877 3.194)"><stop stop-color="#FFE226"/><stop offset=".121" stop-color="#FFDB27"/><stop offset=".295" stop-color="#FFC82A"/><stop offset=".502" stop-color="#FFA930"/><stop offset=".732" stop-color="#FF7E37"/><stop offset=".792" stop-color="#FF7139"/></radialGradient><radialGradient id="h" cx="0" cy="0" r="1" gradientUnits="userSpaceOnUse" gradientTransform="matrix(62.9846 0 0 62.681 31.61 -6.36)"><stop offset=".113" stop-color="#FFF44F"/><stop offset=".456" stop-color="#FF980E"/><stop offset=".622" stop-color="#FF5634"/><stop offset=".716" stop-color="#FF3647"/><stop offset=".904" stop-color="#E31587"/></radialGradient><radialGradient id="i" cx="0" cy="0" r="1" gradientUnits="userSpaceOnUse" gradientTransform="matrix(4.84387 45.6798 -30.12123 3.19404 26.375 -2.884)"><stop stop-color="#FFF44F"/><stop offset=".06" stop-color="#FFE847"/><stop offset=".168" stop-color="#FFC830"/><stop offset=".304" stop-color="#FF980E"/><stop offset=".356" stop-color="#FF8B16"/><stop offset=".455" stop-color="#FF672A"/><stop offset=".57" stop-color="#FF3647"/><stop offset=".737" stop-color="#E31587"/></radialGradient><radialGradient id="j" cx="0" cy="0" r="1" gradientUnits="userSpaceOnUse" gradientTransform="matrix(39.3161 0 0 39.1264 19.877 8.501)"><stop offset=".137" stop-color="#FFF44F"/><stop offset=".48" stop-color="#FF980E"/><stop offset=".592" stop-color="#FF5634"/><stop offset=".655" stop-color="#FF3647"/><stop offset=".904" stop-color="#E31587"/></radialGradient><radialGradient id="k" cx="0" cy="0" r="1" gradientUnits="userSpaceOnUse" gradientTransform="matrix(43.0333 0 0 42.8255 30.01 10.624)"><stop offset=".094" stop-color="#FFF44F"/><stop offset=".231" stop-color="#FFE141"/><stop offset=".509" stop-color="#FFAF1E"/><stop offset=".626" stop-color="#FF980E"/></radialGradient><linearGradient id="a" x1="37.738" y1="6.584" x2="3.583" y2="39.697" gradientUnits="userSpaceOnUse"><stop offset=".048" stop-color="#FFF44F"/><stop offset=".111" stop-color="#FFE847"/><stop offset=".225" stop-color="#FFC830"/><stop offset=".368" stop-color="#FF980E"/><stop offset=".401" stop-color="#FF8B16"/><stop offset=".462" stop-color="#FF672A"/><stop offset=".534" stop-color="#FF3647"/><stop offset=".705" stop-color="#E31587"/></linearGradient><linearGradient id="l" x1="37.322" y1="6.409" x2="8.27" y2="35.607" gradientUnits="userSpaceOnUse"><stop offset=".167" stop-color="#FFF44F" stop-opacity=".8"/><stop offset=".266" stop-color="#FFF44F" stop-opacity=".634"/><stop offset=".489" stop-color="#FFF44F" stop-opacity=".217"/><stop offset=".6" stop-color="#FFF44F" stop-opacity="0"/></linearGradient></defs></svg>