<svg width="42" height="43" fill="none" xmlns="http://www.w3.org/2000/svg"><path d="M40.474 14.25c-.898-2.15-2.72-4.473-4.147-5.207a21.3 21.3 0 0 1 2.093 6.242l.004.034c-2.337-5.795-6.298-8.136-9.535-13.226a24.915 24.915 0 0 1-.487-.787 6.451 6.451 0 0 1-.228-.425 3.73 3.73 0 0 1-.308-.815.053.053 0 0 0-.047-.053.074.074 0 0 0-.04 0c-.002 0-.006.005-.01.006l-.014.008.008-.014C22.57 3.04 20.808 8.638 20.648 11.44c.241-.016.48-.037.727-.037a10.47 10.47 0 0 1 5.24 1.417 10.404 10.404 0 0 1 3.815 3.847 7.163 7.163 0 0 0-4.983-1.205c7.434 3.7 5.44 16.437-4.864 15.96a9.232 9.232 0 0 1-2.69-.517 10.966 10.966 0 0 1-.606-.247c-.117-.053-.234-.106-.349-.166l.014.01c-.1-.048-.2-.098-.3-.15.096.046.187.096.286.14-2.524-1.298-4.608-3.752-4.869-6.73 0 0 .954-3.538 6.832-3.538.635 0 2.453-1.764 2.486-2.276-.008-.167-3.605-1.592-5.008-2.967-.75-.735-1.105-1.089-1.42-1.355a6.156 6.156 0 0 0-.534-.402 9.493 9.493 0 0 1-.058-5.028c-1.906.92-3.6 2.222-4.975 3.827h-.01c-.819-1.034-.761-4.44-.714-5.153-.242.097-.474.22-.69.365a15.03 15.03 0 0 0-2.02 1.722 17.985 17.985 0 0 0-1.933 2.307v.004-.004a17.33 17.33 0 0 0-2.773 6.23l-.028.137a34.9 34.9 0 0 0-.238 1.297c-.16.95-.261 1.907-.305 2.868v.106a20.516 20.516 0 0 0 5.46 13.892 20.71 20.71 0 0 0 13.457 6.569 20.742 20.742 0 0 0 14.38-4.21A20.554 20.554 0 0 0 41.72 25.38c.035-.265.063-.528.094-.796a21.06 21.06 0 0 0-1.34-10.333v-.001Zm-2.05 1.056.003.022-.004-.021Z" fill="url(#a)"/><defs><linearGradient id="a" x1="37.322" y1="6.409" x2="8.27" y2="35.607" gradientUnits="userSpaceOnUse"><stop offset=".167" stop-color="#FFF44F" stop-opacity=".8"/><stop offset=".266" stop-color="#FFF44F" stop-opacity=".634"/><stop offset=".489" stop-color="#FFF44F" stop-opacity=".217"/><stop offset=".6" stop-color="#FFF44F" stop-opacity="0"/></linearGradient></defs></svg>