<svg width="117" height="120" viewBox="0 0 117 120" fill="none" xmlns="http://www.w3.org/2000/svg">
<path d="M111.983 40.2933C109.456 34.2121 104.329 27.6461 100.315 25.5705C103.177 31.1143 105.165 37.0679 106.205 43.2198L106.216 43.3174C99.6393 26.9287 88.4914 20.3102 79.3816 5.91756C78.9208 5.18967 78.4601 4.46029 78.0114 3.69038C77.7547 3.25064 77.5491 2.85443 77.3705 2.48974C76.9928 1.75818 76.7016 0.98505 76.5031 0.18602C76.5033 0.149148 76.49 0.113469 76.4657 0.0857889C76.4413 0.0581084 76.4076 0.0403638 76.371 0.0359401C76.3351 0.0261059 76.2973 0.0261059 76.2614 0.0359401C76.2539 0.0359401 76.2419 0.0494473 76.2329 0.0524489C76.2239 0.0554505 76.2044 0.0689576 76.1909 0.0749608L76.2134 0.0359401C61.6032 8.59048 56.643 24.4239 56.1928 32.3481C50.3561 32.7482 44.7756 34.8983 40.1793 38.5178C39.7 38.1118 39.199 37.7321 38.6785 37.3802C37.3533 32.7412 37.2968 27.8315 38.5149 23.1632C33.1494 25.7623 28.3818 29.4469 24.514 33.9839H24.487C22.1818 31.0619 22.3438 21.4268 22.4759 19.4142C21.794 19.6883 21.143 20.0339 20.5339 20.4453C18.4989 21.8976 16.5964 23.5274 14.8489 25.3153C12.8574 27.3344 11.0386 29.5167 9.41149 31.8393V31.8483V31.8378C5.67231 37.138 3.0199 43.1264 1.60735 49.4571L1.52931 49.8414C1.41975 50.3531 1.02504 52.9165 0.957508 53.4733C0.957508 53.5168 0.948503 53.5573 0.944001 53.6008C0.434853 56.2473 0.11935 58.9273 0 61.6196V61.9198C0.0257062 76.4753 5.5073 90.4923 15.3627 101.204C25.2181 111.915 38.731 118.543 53.2341 119.778C67.7371 121.013 82.1763 116.767 93.7012 107.876C105.226 98.9856 112.999 86.0975 115.486 71.756C115.584 71.0056 115.663 70.2627 115.75 69.5048C116.948 59.6024 115.651 49.5576 111.977 40.2843L111.983 40.2933ZM44.9428 85.8274C45.2145 85.958 45.4696 86.0991 45.7488 86.2236L45.7893 86.2492C45.5071 86.1141 45.225 85.9735 44.9428 85.8274ZM106.217 43.3339V43.2784L106.228 43.3399L106.217 43.3339Z" fill="url(#paint0_linear_0:373)"/>
<path d="M111.983 40.2935C109.456 34.2123 104.329 27.6463 100.314 25.5707C103.177 31.1145 105.164 37.0681 106.205 43.22V43.2756L106.216 43.3371C110.7 56.1675 110.051 70.2345 104.406 82.5979C97.739 96.902 81.6085 111.563 56.3501 110.843C29.0656 110.07 5.02288 89.8167 0.535497 63.2977C-0.282437 59.115 0.535496 56.9943 0.946715 53.595C0.385793 56.2355 0.0727677 58.9226 0.0117188 61.6213V61.9215C0.0374249 76.477 5.51902 90.494 15.3744 101.205C25.2298 111.917 38.7428 118.544 53.2458 119.78C67.7488 121.015 82.188 116.768 93.7129 107.878C105.238 98.9873 113.011 86.0992 115.498 71.7577C115.596 71.0073 115.675 70.2644 115.762 69.5065C116.96 59.6041 115.663 49.5593 111.989 40.286L111.983 40.2935Z" fill="url(#paint1_radial_0:373)"/>
<path d="M111.983 40.2935C109.456 34.2123 104.329 27.6463 100.314 25.5707C103.177 31.1145 105.164 37.0681 106.205 43.22V43.2756L106.216 43.3371C110.7 56.1675 110.051 70.2345 104.406 82.5979C97.739 96.902 81.6085 111.563 56.3501 110.843C29.0656 110.07 5.02288 89.8167 0.535497 63.2977C-0.282437 59.115 0.535496 56.9943 0.946715 53.595C0.385793 56.2355 0.0727677 58.9226 0.0117188 61.6213V61.9215C0.0374249 76.477 5.51902 90.494 15.3744 101.205C25.2298 111.917 38.7428 118.544 53.2458 119.78C67.7488 121.015 82.188 116.768 93.7129 107.878C105.238 98.9873 113.011 86.0992 115.498 71.7577C115.596 71.0073 115.675 70.2644 115.762 69.5065C116.96 59.6041 115.663 49.5593 111.989 40.286L111.983 40.2935Z" fill="url(#paint2_radial_0:373)"/>
<path d="M83.7092 47.1221C83.8353 47.2106 83.9524 47.2992 84.0709 47.3877C82.6098 44.7969 80.791 42.4248 78.6681 40.3415C60.5835 22.2569 73.9301 1.14069 76.1797 0.0601171L76.2023 0.0270996C61.592 8.58163 56.6319 24.415 56.1816 32.3392C56.86 32.2927 57.5324 32.2357 58.2257 32.2357C63.4092 32.2457 68.4977 33.6281 72.9737 36.2423C77.4498 38.8565 81.1538 42.6092 83.7092 47.1191V47.1221Z" fill="url(#paint3_radial_0:373)"/>
<path d="M58.2546 50.739C58.1585 52.1857 53.0468 57.1759 51.2594 57.1759C34.7206 57.1759 32.0342 67.1817 32.0342 67.1817C32.7666 75.6072 38.6377 82.5498 45.7349 86.2118C46.0591 86.3799 46.3878 86.5315 46.7165 86.68C47.2858 86.9322 47.8551 87.1653 48.4244 87.3794C50.8601 88.2413 53.4113 88.7336 55.9929 88.8397C84.9883 90.1994 90.6012 54.1713 69.6786 43.7108C74.6141 43.0686 79.6121 44.2821 83.7036 47.1161C81.1481 42.6062 77.4441 38.8534 72.9681 36.2393C68.492 33.6251 63.4036 32.2427 58.2201 32.2327C57.5297 32.2327 56.8543 32.2897 56.176 32.3362C50.3393 32.7364 44.7588 34.8865 40.1625 38.506C41.0495 39.2564 42.0505 40.2589 44.1591 42.3375C48.1062 46.2261 58.2291 50.2542 58.2516 50.727L58.2546 50.739Z" fill="url(#paint4_radial_0:373)"/>
<path d="M58.2546 50.739C58.1585 52.1857 53.0468 57.1759 51.2594 57.1759C34.7206 57.1759 32.0342 67.1817 32.0342 67.1817C32.7666 75.6072 38.6377 82.5498 45.7349 86.2118C46.0591 86.3799 46.3878 86.5315 46.7165 86.68C47.2858 86.9322 47.8551 87.1653 48.4244 87.3794C50.8601 88.2413 53.4113 88.7336 55.9929 88.8397C84.9883 90.1994 90.6012 54.1713 69.6786 43.7108C74.6141 43.0686 79.6121 44.2821 83.7036 47.1161C81.1481 42.6062 77.4441 38.8534 72.9681 36.2393C68.492 33.6251 63.4036 32.2427 58.2201 32.2327C57.5297 32.2327 56.8543 32.2897 56.176 32.3362C50.3393 32.7364 44.7588 34.8865 40.1625 38.506C41.0495 39.2564 42.0505 40.2589 44.1591 42.3375C48.1062 46.2261 58.2291 50.2542 58.2516 50.727L58.2546 50.739Z" fill="url(#paint5_radial_0:373)"/>
<path d="M37.4546 36.5864C37.9258 36.8866 38.3146 37.1477 38.6552 37.3834C37.33 32.7443 37.2735 27.8347 38.4916 23.1663C33.1261 25.7654 28.3585 29.4501 24.4907 33.9871C24.7744 33.9796 33.2118 33.828 37.4546 36.5864Z" fill="url(#paint6_radial_0:373)"/>
<path d="M0.525592 63.3008C5.01447 89.8199 29.0557 110.081 56.3402 110.846C81.5986 111.56 97.7321 96.8977 104.396 82.6011C110.041 70.2377 110.69 56.1706 106.206 43.3403V43.2847C106.206 43.2412 106.197 43.2157 106.206 43.2292L106.216 43.3267C108.28 56.7994 101.427 69.8458 90.7129 78.6855L90.6799 78.7605C69.8038 95.7645 49.8282 89.017 45.7911 86.2645C45.5089 86.1294 45.2268 85.9889 44.9446 85.8428C32.7747 80.0257 27.7455 68.9438 28.8261 59.4288C25.9372 59.4714 23.098 58.6753 20.6524 57.137C18.2068 55.5987 16.2598 53.3841 15.0473 50.7617C18.2422 48.8046 21.885 47.6982 25.6287 47.5479C29.3724 47.3976 33.0922 48.2085 36.4336 49.9032C43.3212 53.0296 51.1585 53.3377 58.2702 50.7617C58.2477 50.2889 48.1248 46.2593 44.1777 42.3722C42.0691 40.2936 41.0681 39.2926 40.1811 38.5407C39.7018 38.1347 39.2008 37.7549 38.6803 37.4031C38.3351 37.1675 37.9464 36.9123 37.4797 36.6062C33.2369 33.8477 24.7995 33.9993 24.5203 34.0068H24.4933C22.1881 31.0848 22.3502 21.4496 22.4822 19.4371C21.8003 19.7111 21.1493 20.0568 20.5402 20.4681C18.5052 21.9205 16.6027 23.5502 14.8552 25.3382C12.8566 27.3516 11.0303 29.5288 9.39529 31.8472V31.8562V31.8457C5.65611 37.1459 3.0037 43.1342 1.59116 49.465C1.56264 49.5836 -0.503954 58.6184 0.515086 63.3038L0.525592 63.3008Z" fill="url(#paint7_radial_0:373)"/>
<path d="M78.6658 40.3383C80.7893 42.4239 82.6081 44.7985 84.0686 47.392C84.3883 47.6336 84.6869 47.8738 84.9406 48.1064C98.1281 60.2628 91.2184 77.4469 90.7036 78.6626C101.416 69.8364 108.263 56.781 106.207 43.3038C99.6274 26.9001 88.4674 20.2816 79.3726 5.88899C78.9119 5.16111 78.4511 4.43172 78.0024 3.66181C77.7458 3.22208 77.5402 2.82587 77.3616 2.46118C76.9838 1.72962 76.6927 0.956486 76.4941 0.157455C76.4944 0.120584 76.4811 0.084905 76.4567 0.0572245C76.4323 0.029544 76.3986 0.0117994 76.362 0.00737566C76.3262 -0.00245855 76.2883 -0.00245855 76.2525 0.00737566C76.245 0.00737566 76.233 0.0208828 76.224 0.0238844C76.215 0.026886 76.1954 0.0403932 76.1819 0.0463964C73.9322 1.11346 60.5887 22.2432 78.6733 40.3127L78.6658 40.3383Z" fill="url(#paint8_radial_0:373)"/>
<path d="M84.9386 48.113C84.685 47.8803 84.3863 47.6402 84.0667 47.3986C83.9481 47.31 83.831 47.2215 83.705 47.1329C79.6135 44.299 74.6155 43.0855 69.68 43.7276C90.6011 54.1882 84.9881 90.2073 55.9943 88.8566C53.4127 88.7504 50.8615 88.2582 48.4258 87.3963C47.8565 87.1832 47.2871 86.9501 46.7178 86.6969C46.3892 86.5468 46.0605 86.3968 45.7363 86.2287L45.7769 86.2542C49.82 89.0141 69.7896 95.7572 90.6657 78.7502L90.6987 78.6752C91.2194 77.4595 98.1291 60.2754 84.9356 48.119L84.9386 48.113Z" fill="url(#paint9_radial_0:373)"/>
<path d="M32.0367 67.1727C32.0367 67.1727 34.7216 57.1669 51.2619 57.1669C53.0493 57.1669 58.1655 52.1768 58.2571 50.73C51.1454 53.306 43.3081 52.9979 36.4205 49.8716C33.079 48.1768 29.3592 47.366 25.6156 47.5162C21.8719 47.6665 18.2291 48.7729 15.0342 50.73C16.2467 53.3525 18.1937 55.567 20.6393 57.1054C23.0849 58.6437 25.9241 59.4397 28.813 59.3971C27.7354 68.9077 32.7631 79.988 44.9315 85.8111C45.2032 85.9417 45.4583 86.0828 45.7375 86.2073C38.6342 82.5379 32.7691 75.5982 32.0367 67.1772V67.1727Z" fill="url(#paint10_radial_0:373)"/>
<path d="M111.983 40.2933C109.456 34.2121 104.329 27.6461 100.315 25.5705C103.177 31.1143 105.165 37.0679 106.205 43.2198L106.216 43.3174C99.6393 26.9287 88.4913 20.3102 79.3815 5.91756C78.9208 5.18967 78.46 4.46029 78.0113 3.69038C77.7547 3.25064 77.549 2.85443 77.3705 2.48974C76.9927 1.75818 76.7016 0.98505 76.503 0.18602C76.5033 0.149148 76.4899 0.113469 76.4656 0.0857889C76.4412 0.0581084 76.4075 0.0403638 76.3709 0.0359401C76.3351 0.0261059 76.2972 0.0261059 76.2614 0.0359401C76.2539 0.0359401 76.2419 0.0494473 76.2328 0.0524489C76.2238 0.0554505 76.2043 0.0689576 76.1908 0.0749608L76.2133 0.0359401C61.6031 8.59048 56.643 24.4239 56.1927 32.3481C56.8711 32.3015 57.5434 32.2445 58.2368 32.2445C63.4203 32.2545 68.5088 33.6369 72.9848 36.2511C77.4608 38.8653 81.1649 42.6181 83.7203 47.1279C79.6289 44.294 74.6308 43.0804 69.6954 43.7226C90.6165 54.1832 85.0035 90.2023 56.0096 88.8515C53.428 88.7454 50.8769 88.2532 48.4411 87.3913C47.8718 87.1781 47.3025 86.945 46.7332 86.6919C46.4045 86.5418 46.0759 86.3917 45.7517 86.2236L45.7922 86.2492C45.5101 86.1141 45.2279 85.9735 44.9458 85.8274C45.2174 85.958 45.4725 86.0991 45.7517 86.2236C38.6484 82.5527 32.7833 75.613 32.0509 67.1936C32.0509 67.1936 34.7358 57.1877 51.2761 57.1877C53.0636 57.1877 58.1798 52.1976 58.2713 50.7508C58.2488 50.2781 48.1259 46.2484 44.1789 42.3614C42.0702 40.2828 41.0692 39.2818 40.1822 38.5299C39.7029 38.1238 39.2019 37.7441 38.6814 37.3923C37.3562 32.7532 37.2997 27.8435 38.5179 23.1752C33.1523 25.7743 28.3847 29.4589 24.5169 33.9959H24.4899C22.1847 31.0739 22.3468 21.4388 22.4788 19.4262C21.7969 19.7003 21.1459 20.0459 20.5368 20.4573C18.5018 21.9096 16.5993 23.5394 14.8518 25.3274C12.8604 27.3464 11.0416 29.5287 9.41442 31.8513V31.8603V31.8498C5.67524 37.1501 3.02283 43.1384 1.61028 49.4692L1.53224 49.8534C1.42268 50.3651 0.931922 52.9645 0.861385 53.5228C0.412498 56.206 0.125826 58.9139 0.00292969 61.6316V61.9318C0.0286358 76.4873 5.51023 90.5043 15.3656 101.216C25.221 111.927 38.734 118.555 53.237 119.79C67.7401 121.025 82.1792 116.779 93.7042 107.888C105.229 98.9976 113.002 86.1095 115.489 71.768C115.587 71.0176 115.666 70.2747 115.753 69.5168C116.951 59.6144 115.654 49.5696 111.98 40.2963L111.983 40.2933ZM106.213 43.2814L106.223 43.3429L106.213 43.2814Z" fill="url(#paint11_linear_0:373)"/>
<defs>
<linearGradient id="paint0_linear_0:373" x1="104.284" y1="18.6157" x2="7.7186" y2="111.785" gradientUnits="userSpaceOnUse">
<stop offset="0.048" stop-color="#FFF44F"/>
<stop offset="0.111" stop-color="#FFE847"/>
<stop offset="0.225" stop-color="#FFC830"/>
<stop offset="0.368" stop-color="#FF980E"/>
<stop offset="0.401" stop-color="#FF8B16"/>
<stop offset="0.462" stop-color="#FF672A"/>
<stop offset="0.534" stop-color="#FF3647"/>
<stop offset="0.705" stop-color="#E31587"/>
</linearGradient>
<radialGradient id="paint1_radial_0:373" cx="0" cy="0" r="1" gradientUnits="userSpaceOnUse" gradientTransform="translate(100.547 13.5343) scale(121.264)">
<stop offset="0.129" stop-color="#FFBD4F"/>
<stop offset="0.186" stop-color="#FFAC31"/>
<stop offset="0.247" stop-color="#FF9D17"/>
<stop offset="0.283" stop-color="#FF980E"/>
<stop offset="0.403" stop-color="#FF563B"/>
<stop offset="0.467" stop-color="#FF3750"/>
<stop offset="0.71" stop-color="#F5156C"/>
<stop offset="0.782" stop-color="#EB0878"/>
<stop offset="0.86" stop-color="#E50080"/>
</radialGradient>
<radialGradient id="paint2_radial_0:373" cx="0" cy="0" r="1" gradientUnits="userSpaceOnUse" gradientTransform="translate(55.5232 63.0606) scale(121.264)">
<stop offset="0.3" stop-color="#960E18"/>
<stop offset="0.351" stop-color="#B11927" stop-opacity="0.74"/>
<stop offset="0.435" stop-color="#DB293D" stop-opacity="0.343"/>
<stop offset="0.497" stop-color="#F5334B" stop-opacity="0.094"/>
<stop offset="0.53" stop-color="#FF3750" stop-opacity="0"/>
</radialGradient>
<radialGradient id="paint3_radial_0:373" cx="0" cy="0" r="1" gradientUnits="userSpaceOnUse" gradientTransform="translate(70.5323 -13.4801) scale(87.8416)">
<stop offset="0.132" stop-color="#FFF44F"/>
<stop offset="0.252" stop-color="#FFDC3E"/>
<stop offset="0.506" stop-color="#FF9D12"/>
<stop offset="0.526" stop-color="#FF980E"/>
</radialGradient>
<radialGradient id="paint4_radial_0:373" cx="0" cy="0" r="1" gradientUnits="userSpaceOnUse" gradientTransform="translate(42.016 94.5772) scale(57.7356)">
<stop offset="0.353" stop-color="#3A8EE6"/>
<stop offset="0.472" stop-color="#5C79F0"/>
<stop offset="0.669" stop-color="#9059FF"/>
<stop offset="1" stop-color="#C139E6"/>
</radialGradient>
<radialGradient id="paint5_radial_0:373" cx="0" cy="0" r="1" gradientUnits="userSpaceOnUse" gradientTransform="translate(61.3882 52.651) rotate(-13.5916) scale(30.6164 35.8441)">
<stop offset="0.206" stop-color="#9059FF" stop-opacity="0"/>
<stop offset="0.278" stop-color="#8C4FF3" stop-opacity="0.064"/>
<stop offset="0.747" stop-color="#7716A8" stop-opacity="0.45"/>
<stop offset="0.975" stop-color="#6E008B" stop-opacity="0.6"/>
</radialGradient>
<radialGradient id="paint6_radial_0:373" cx="0" cy="0" r="1" gradientUnits="userSpaceOnUse" gradientTransform="translate(54.0234 9.03182) scale(41.542)">
<stop stop-color="#FFE226"/>
<stop offset="0.121" stop-color="#FFDB27"/>
<stop offset="0.295" stop-color="#FFC82A"/>
<stop offset="0.502" stop-color="#FFA930"/>
<stop offset="0.732" stop-color="#FF7E37"/>
<stop offset="0.792" stop-color="#FF7139"/>
</radialGradient>
<radialGradient id="paint7_radial_0:373" cx="0" cy="0" r="1" gradientUnits="userSpaceOnUse" gradientTransform="translate(87.0405 -17.9823) scale(177.244)">
<stop offset="0.113" stop-color="#FFF44F"/>
<stop offset="0.456" stop-color="#FF980E"/>
<stop offset="0.622" stop-color="#FF5634"/>
<stop offset="0.716" stop-color="#FF3647"/>
<stop offset="0.904" stop-color="#E31587"/>
</radialGradient>
<radialGradient id="paint8_radial_0:373" cx="0" cy="0" r="1" gradientUnits="userSpaceOnUse" gradientTransform="translate(72.3084 -8.15545) rotate(83.976) scale(129.887 85.2437)">
<stop stop-color="#FFF44F"/>
<stop offset="0.06" stop-color="#FFE847"/>
<stop offset="0.168" stop-color="#FFC830"/>
<stop offset="0.304" stop-color="#FF980E"/>
<stop offset="0.356" stop-color="#FF8B16"/>
<stop offset="0.455" stop-color="#FF672A"/>
<stop offset="0.57" stop-color="#FF3647"/>
<stop offset="0.737" stop-color="#E31587"/>
</radialGradient>
<radialGradient id="paint9_radial_0:373" cx="0" cy="0" r="1" gradientUnits="userSpaceOnUse" gradientTransform="translate(54.0222 24.0402) scale(110.639)">
<stop offset="0.137" stop-color="#FFF44F"/>
<stop offset="0.48" stop-color="#FF980E"/>
<stop offset="0.592" stop-color="#FF5634"/>
<stop offset="0.655" stop-color="#FF3647"/>
<stop offset="0.904" stop-color="#E31587"/>
</radialGradient>
<radialGradient id="paint10_radial_0:373" cx="0" cy="0" r="1" gradientUnits="userSpaceOnUse" gradientTransform="translate(82.5385 30.0431) scale(121.099)">
<stop offset="0.094" stop-color="#FFF44F"/>
<stop offset="0.231" stop-color="#FFE141"/>
<stop offset="0.509" stop-color="#FFAF1E"/>
<stop offset="0.626" stop-color="#FF980E"/>
</radialGradient>
<linearGradient id="paint11_linear_0:373" x1="103.114" y1="18.1204" x2="20.96" y2="100.289" gradientUnits="userSpaceOnUse">
<stop offset="0.167" stop-color="#FFF44F" stop-opacity="0.8"/>
<stop offset="0.266" stop-color="#FFF44F" stop-opacity="0.634"/>
<stop offset="0.489" stop-color="#FFF44F" stop-opacity="0.217"/>
<stop offset="0.6" stop-color="#FFF44F" stop-opacity="0"/>
</linearGradient>
</defs>
</svg>
