<svg width="21" height="20" viewBox="0 0 21 20" fill="none" xmlns="http://www.w3.org/2000/svg">
<path d="M6.92585 16.104C6.92585 16.1867 6.83265 16.2529 6.71515 16.2529C6.58144 16.2653 6.48825 16.1991 6.48825 16.104C6.48825 16.0213 6.58144 15.9551 6.69894 15.9551C6.8205 15.9427 6.92585 16.0089 6.92585 16.104ZM5.66573 15.9179C5.63736 16.0006 5.7184 16.0957 5.83996 16.1205C5.9453 16.1619 6.06686 16.1205 6.09117 16.0378C6.11548 15.9551 6.03849 15.86 5.91694 15.8228C5.81159 15.7938 5.69409 15.8352 5.66573 15.9179ZM7.45664 15.8476C7.33913 15.8765 7.2581 15.9551 7.27025 16.0502C7.28241 16.1329 7.38775 16.1867 7.50931 16.1577C7.62681 16.1288 7.70785 16.0502 7.69569 15.9675C7.68354 15.8889 7.57414 15.8352 7.45664 15.8476ZM10.1227 0C4.50285 0 0.203857 4.35477 0.203857 10.0908C0.203857 14.6772 3.03204 18.6019 7.07171 19.9832C7.59035 20.0783 7.77268 19.7516 7.77268 19.4827C7.77268 19.2263 7.76052 17.812 7.76052 16.9435C7.76052 16.9435 4.92424 17.5638 4.32862 15.7111C4.32862 15.7111 3.86671 14.5076 3.20221 14.1975C3.20221 14.1975 2.27434 13.5482 3.26704 13.5606C3.26704 13.5606 4.27595 13.6433 4.83105 14.6276C5.7184 16.2239 7.20542 15.7649 7.78483 15.4919C7.87803 14.8302 8.1414 14.3712 8.43313 14.0982C6.16815 13.8418 3.88292 13.5068 3.88292 9.52839C3.88292 8.3911 4.19086 7.82039 4.83915 7.09253C4.73381 6.82372 4.3894 5.71538 4.9445 4.28447C5.79133 4.01565 7.74026 5.40107 7.74026 5.40107C8.55063 5.16948 9.42177 5.04955 10.2848 5.04955C11.1479 5.04955 12.019 5.16948 12.8294 5.40107C12.8294 5.40107 14.7783 4.01152 15.6251 4.28447C16.1802 5.71951 15.8358 6.82372 15.7305 7.09253C16.3788 7.82453 16.7758 8.39524 16.7758 9.52839C16.7758 13.5192 14.3893 13.8377 12.1243 14.0982C12.4971 14.4249 12.8132 15.0453 12.8132 16.0171C12.8132 17.4108 12.801 19.1354 12.801 19.4745C12.801 19.7433 12.9874 20.07 13.502 19.9749C17.5538 18.6019 20.3009 14.6772 20.3009 10.0908C20.3009 4.35477 15.7426 0 10.1227 0ZM4.14224 14.2636C4.08956 14.305 4.10172 14.4001 4.1706 14.4787C4.23543 14.5449 4.32862 14.5738 4.3813 14.52C4.43397 14.4787 4.42181 14.3836 4.35293 14.305C4.2881 14.2388 4.19491 14.2099 4.14224 14.2636ZM3.70464 13.9287C3.67628 13.9824 3.7168 14.0486 3.79783 14.0899C3.86266 14.1313 3.9437 14.1189 3.97206 14.061C4.00042 14.0072 3.9599 13.9411 3.87887 13.8997C3.79783 13.8749 3.733 13.8873 3.70464 13.9287ZM5.01743 15.4009C4.9526 15.4547 4.97691 15.5788 5.07011 15.6573C5.1633 15.7524 5.2808 15.7649 5.33348 15.6987C5.38615 15.6449 5.36184 15.5209 5.2808 15.4423C5.19166 15.3472 5.07011 15.3348 5.01743 15.4009ZM4.55552 14.793C4.49069 14.8343 4.49069 14.9419 4.55552 15.037C4.62035 15.1321 4.72975 15.1735 4.78243 15.1321C4.84726 15.0783 4.84726 14.9708 4.78243 14.8757C4.7257 14.7806 4.62035 14.7392 4.55552 14.793Z" fill="black"/>
</svg>
