<svg width="46" height="46" fill="none" xmlns="http://www.w3.org/2000/svg"><path d="M15.386 36.48c0 .184-.213.33-.482.33-.306.028-.52-.119-.52-.33 0-.183.214-.33.482-.33.279-.028.52.119.52.33Zm-2.884-.413c-.065.184.12.395.398.45.242.092.52 0 .575-.184.056-.183-.12-.395-.398-.477-.242-.064-.51.027-.575.211Zm4.099-.156c-.27.064-.455.239-.427.45.028.183.27.303.547.238.27-.064.455-.238.427-.422-.028-.174-.278-.294-.547-.266ZM22.703.734C9.84.734 0 10.401 0 23.133c0 10.18 6.473 18.892 15.72 21.958 1.187.21 1.604-.514 1.604-1.111 0-.57-.028-3.709-.028-5.636 0 0-6.492 1.377-7.855-2.736 0 0-1.057-2.671-2.578-3.36 0 0-2.124-1.441.148-1.413 0 0 2.31.183 3.58 2.368 2.031 3.543 5.435 2.524 6.761 1.918.213-1.468.816-2.487 1.484-3.093-5.184-.57-10.415-1.313-10.415-10.144 0-2.524.705-3.79 2.189-5.407-.242-.596-1.03-3.056.24-6.232 1.94-.597 6.4 2.478 6.4 2.478a22.002 22.002 0 0 1 5.824-.78c1.976 0 3.97.266 5.824.78 0 0 4.461-3.084 6.4-2.479 1.27 3.186.482 5.637.24 6.233 1.485 1.625 2.394 2.892 2.394 5.407 0 8.859-5.463 9.566-10.647 10.144.853.725 1.576 2.102 1.576 4.26 0 3.093-.027 6.92-.027 7.674 0 .596.426 1.321 1.604 1.11C39.712 42.025 46 33.313 46 23.132 46 10.402 35.566.735 22.703.735ZM9.015 32.395c-.121.092-.093.303.064.477.149.147.362.212.483.092.12-.091.092-.303-.065-.477-.149-.147-.362-.211-.482-.092Zm-1.002-.743c-.065.119.028.266.213.358.149.091.334.064.399-.065.065-.119-.028-.266-.213-.358-.186-.055-.334-.027-.4.065Zm3.005 3.267c-.149.12-.093.395.12.57.214.21.483.238.603.092.12-.12.065-.395-.12-.57-.205-.21-.483-.238-.603-.092ZM9.96 33.57c-.148.092-.148.33 0 .542.149.21.4.303.52.21.148-.119.148-.357 0-.568-.13-.211-.371-.303-.52-.184Z" fill="#000"/></svg>