<svg width="20" height="20" fill="none" xmlns="http://www.w3.org/2000/svg"><g clip-path="url(#a)"><path d="M9.85 19.31a9.398 9.398 0 1 0 0-18.795 9.398 9.398 0 0 0 0 18.795Z" fill="#5A5A5A" fill-opacity=".48"/><path d="M9.85 18.723a8.81 8.81 0 1 0 0-17.62 8.81 8.81 0 0 0 0 17.62Z" fill="#5A5A5A" fill-opacity=".48"/><path d="M7.746 14.353h-1.55l1.75-8.223h1.55L8.78 9.501h.282l2.654-3.37h1.81v.14l-3.125 3.9v.212l1.973 3.9v.07H10.66l-1.715-3.371h-.493l-.705 3.371Z" fill="#F5F5F5"/></g><defs><clipPath id="a"><path fill="#fff" transform="translate(.453 .515)" d="M0 0h18.795v18.795H0z"/></clipPath></defs></svg>