<svg width="200" height="27" fill="none" xmlns="http://www.w3.org/2000/svg"><path d="M0 13.044v13.043h8.696v-7.322h6.132c9.84 0 13.09-1.053 14.92-4.852 1.877-3.798.778-9.885-2.105-11.945C25.263.275 23.066 0 11.35 0H0v13.044Zm21.053-5.721c1.098 1.098 1.19 2.609.183 4.027-.641.961-1.007 1.007-6.636 1.007H8.696V6.408h5.72c5.126 0 5.813.091 6.637.915Zm13.272 5.721v13.089l4.485-.137 4.44-.138.137-12.952L43.478 0h-9.153v13.044Zm23.433-9.749c-4.485 8.238-11.99 22.334-11.99 22.563 0 .138 2.059.23 4.576.23h4.576l1.236-2.518 1.236-2.517H71.35l1.144 2.517 1.144 2.517h4.577c2.746 0 4.622-.183 4.622-.457 0-.23-2.837-6.133-6.27-13.044L70.252 0H59.543l-1.785 3.295Zm8.604 7.552c.87 1.876 1.693 3.661 1.74 3.844.09.23-1.603.412-3.754.412h-3.936l1.923-3.89c1.098-2.151 2.06-3.89 2.196-3.89.138.046.962 1.602 1.831 3.524Zm19.313 2.059.137 12.952h8.238l.23-6.956.228-7.003 6.316 7.094 6.316 7.094h8.649V0h-8.649l-.138 6.82-.137 6.773-5.95-6.774L94.965 0h-9.381l.091 12.906Zm35.24 0 .138 12.952 4.485.137 4.439.138V0h-9.153l.091 12.906Zm11.808-9.702v3.204h10.984v19.68h8.696V6.407h10.984V0h-30.664v3.204ZM164.302.229c0 .137 2.975 4.027 6.636 8.65l6.59 8.375.138 4.302.137 4.302h8.696l.228-4.576.229-4.577 6.545-8.1C197.071 4.118 200 .365 200 .228c0-.137-2.106-.229-4.714-.229h-4.714l-4.073 5.034c-2.197 2.746-4.165 5.035-4.303 5.035-.183 0-2.059-2.243-4.164-5.035l-3.89-4.988L169.245 0c-2.746 0-4.943.092-4.943.229Z" fill="#898686" fill-opacity=".32"/></svg>