<svg width="70" height="10" fill="none" xmlns="http://www.w3.org/2000/svg"><path d="M.41 5.366V9.84h2.982V7.328h2.104c3.376 0 4.491-.36 5.12-1.664.643-1.303.266-3.391-.723-4.098-.817-.581-1.57-.675-5.59-.675H.41v4.475Zm7.222-1.963c.377.377.408.895.063 1.382-.22.33-.346.345-2.277.345H3.392V3.09h1.963c1.759 0 1.994.031 2.277.314ZM12.185 5.366v4.49l1.54-.047 1.522-.047.047-4.443.032-4.428h-3.14v4.475ZM20.224 2.021c-1.538 2.827-4.113 7.663-4.113 7.741 0 .047.706.079 1.57.079h1.57l.424-.864.424-.864h4.789l.392.864.393.864h1.57c.942 0 1.586-.063 1.586-.157 0-.079-.974-2.104-2.151-4.475L24.51.89h-3.674l-.613 1.13Zm2.952 2.591c.299.644.581 1.256.597 1.319.031.078-.55.141-1.288.141h-1.35l.66-1.334c.376-.738.706-1.335.753-1.335.047.016.33.55.628 1.209ZM29.802 5.319l.047 4.443h2.826l.079-2.387.078-2.402L35 7.407l2.167 2.434h2.967V.89h-2.967l-.047 2.34-.047 2.323L35.03 3.23 32.989.89h-3.218l.031 4.429ZM41.892 5.319l.047 4.443 1.539.047 1.523.047V.891h-3.14l.031 4.428ZM45.943 1.99v1.099h3.768v6.752h2.983V3.089h3.769V.891h-10.52V1.99ZM56.777.97c0 .046 1.02 1.38 2.276 2.967l2.261 2.873.047 1.476.048 1.476h2.983l.078-1.57.079-1.57 2.245-2.78c1.225-1.538 2.23-2.826 2.23-2.873 0-.047-.722-.078-1.617-.078h-1.618l-1.397 1.727c-.754.942-1.429 1.727-1.476 1.727-.063 0-.707-.77-1.429-1.727L60.153.906l-1.68-.015c-.943 0-1.696.031-1.696.078Z" fill="#5A5A5A" fill-opacity=".64"/></svg>