<svg width="70" height="10" viewBox="0 0 70 10" fill="none" xmlns="http://www.w3.org/2000/svg">
<path d="M0.40918 5.36569V9.84058H1.90081H3.39244V8.58447V7.32836H5.49642C8.87221 7.32836 9.98701 6.96723 10.6151 5.66402C11.2588 4.3608 10.882 2.27252 9.8928 1.56596C9.07633 0.985011 8.32266 0.890802 4.30312 0.890802H0.40918V5.36569ZM7.6318 3.40302C8.00864 3.77985 8.04004 4.298 7.69461 4.78474C7.47479 5.11447 7.34918 5.13017 5.41791 5.13017H3.39244V4.10958V3.08899H5.35511C7.11366 3.08899 7.34918 3.1204 7.6318 3.40302Z" fill="#5A5A5A" fill-opacity="0.64"/>
<path d="M12.1854 5.36561V9.8562L13.7242 9.8091L15.2472 9.76199L15.2943 5.31851L15.3257 0.890726H13.7556H12.1854V5.36561Z" fill="#5A5A5A" fill-opacity="0.64"/>
<path d="M20.2244 2.0213C18.6856 4.84754 16.1106 9.68356 16.1106 9.76207C16.1106 9.80917 16.8172 9.84058 17.6807 9.84058H19.2509L19.6748 8.977L20.0987 8.11343H22.4853H24.8877L25.2802 8.977L25.6727 9.84058H27.2429C28.1849 9.84058 28.8287 9.77777 28.8287 9.68356C28.8287 9.60506 27.8552 7.57958 26.6776 5.20868L24.5108 0.890802H22.6738H20.8367L20.2244 2.0213ZM23.1762 4.61202C23.4745 5.25578 23.7572 5.86813 23.7729 5.93094C23.8043 6.00944 23.2233 6.07225 22.4853 6.07225H21.135L21.7945 4.73764C22.1713 3.99967 22.501 3.40302 22.5482 3.40302C22.5953 3.41872 22.8779 3.95257 23.1762 4.61202Z" fill="#5A5A5A" fill-opacity="0.64"/>
<path d="M29.802 5.31859L29.8491 9.76207H31.2623H32.6754L32.7539 7.37546L32.8324 4.97316L34.9992 7.40687L37.166 9.84058H38.6419H40.1335V5.36569V0.890802H38.6419H37.166L37.1189 3.2303L37.0718 5.55411L35.0306 3.2303L32.9894 0.890802H31.3722H29.7706L29.802 5.31859Z" fill="#5A5A5A" fill-opacity="0.64"/>
<path d="M41.8921 5.31851L41.9392 9.76199L43.478 9.8091L45.001 9.8562V5.36561V0.890726H43.4309H41.8607L41.8921 5.31851Z" fill="#5A5A5A" fill-opacity="0.64"/>
<path d="M45.9427 1.9899V3.08899H47.8269H49.7111V6.46478V9.84058H51.2027H52.6943V6.46478V3.08899H54.5785H56.4627V1.9899V0.890802H51.2027H45.9427V1.9899Z" fill="#5A5A5A" fill-opacity="0.64"/>
<path d="M56.7767 0.969203C56.7767 1.01631 57.7973 2.35092 59.0534 3.93676L61.3144 6.81011L61.3615 8.28604L61.4086 9.76196H62.9003H64.3919L64.4704 8.19183L64.5489 6.62169L66.7942 3.84255C68.0189 2.30382 69.0238 1.01631 69.0238 0.969203C69.0238 0.922099 68.3015 0.890696 67.4066 0.890696H65.7893L64.3919 2.61785C63.6382 3.55993 62.9631 4.34499 62.916 4.34499C62.8532 4.34499 62.2094 3.57563 61.4871 2.61785L60.1525 0.906398L58.4725 0.890696C57.5304 0.890696 56.7767 0.922099 56.7767 0.969203Z" fill="#5A5A5A" fill-opacity="0.64"/>
</svg>
