<svg width="84" height="84" viewBox="0 0 84 84" fill="none" xmlns="http://www.w3.org/2000/svg">
<g filter="url(#filter0_d_0:158)">
<circle cx="42" cy="38" r="22" fill="white"/>
</g>
<path d="M46 43V42H43V39H46V41H48V43H47V45H45V47H43V44H45V43H46ZM51 47H47V45H49V43H51V47ZM33 29H41V37H33V29ZM43 29H51V37H43V29ZM33 39H41V47H33V39ZM48 39H51V41H48V39ZM36 32V34H38V32H36ZM36 42V44H38V42H36ZM46 32V34H48V32H46Z" fill="black"/>
<defs>
<filter id="filter0_d_0:158" x="0" y="0" width="84" height="84" filterUnits="userSpaceOnUse" color-interpolation-filters="sRGB">
<feFlood flood-opacity="0" result="BackgroundImageFix"/>
<feColorMatrix in="SourceAlpha" type="matrix" values="0 0 0 0 0 0 0 0 0 0 0 0 0 0 0 0 0 0 127 0" result="hardAlpha"/>
<feMorphology radius="4" operator="dilate" in="SourceAlpha" result="effect1_dropShadow_0:158"/>
<feOffset dy="4"/>
<feGaussianBlur stdDeviation="8"/>
<feComposite in2="hardAlpha" operator="out"/>
<feColorMatrix type="matrix" values="0 0 0 0 0.770833 0 0 0 0 0.770833 0 0 0 0 0.770833 0 0 0 0.25 0"/>
<feBlend mode="normal" in2="BackgroundImageFix" result="effect1_dropShadow_0:158"/>
<feBlend mode="normal" in="SourceGraphic" in2="effect1_dropShadow_0:158" result="shape"/>
</filter>
</defs>
</svg>
