<svg width="734" height="734" fill="none" xmlns="http://www.w3.org/2000/svg"><g filter="url(#a)"><circle cx="367" cy="363" r="279" fill="#fff"/></g><g filter="url(#b)"><path d="M542.141 281.119a12.608 12.608 0 0 0-3.161-7.592 12.553 12.553 0 0 0-7.164-4.014c-67.545-12.134-95.967-21.624-156.965-49.133-6.092-2.274-9.869-2.234-15.702 0-60.998 27.541-89.42 36.983-156.965 49.133a12.553 12.553 0 0 0-7.164 4.014 12.608 12.608 0 0 0-3.161 7.592c-3.022 48.078 3.408 92.85 19.126 133.099a274.582 274.582 0 0 0 56.083 88.452c35.072 37.321 73.96 59.109 94.012 67.356a15.676 15.676 0 0 0 11.863 0c21.199-8.593 58.642-29.76 93.989-67.372a274.59 274.59 0 0 0 56.083-88.436c15.718-40.241 22.148-85.021 19.126-133.099Z" fill="url(#c)"/></g><defs><filter id="a" x="0" y="0" width="734" height="734" filterUnits="userSpaceOnUse" color-interpolation-filters="sRGB"><feFlood flood-opacity="0" result="BackgroundImageFix"/><feColorMatrix in="SourceAlpha" values="0 0 0 0 0 0 0 0 0 0 0 0 0 0 0 0 0 0 127 0" result="hardAlpha"/><feMorphology radius="24" operator="dilate" in="SourceAlpha" result="effect1_dropShadow_0:465"/><feOffset dy="4"/><feGaussianBlur stdDeviation="32"/><feComposite in2="hardAlpha" operator="out"/><feColorMatrix values="0 0 0 0 0.883333 0 0 0 0 0.883333 0 0 0 0 0.883333 0 0 0 0.25 0"/><feBlend in2="BackgroundImageFix" result="effect1_dropShadow_0:465"/><feBlend in="SourceGraphic" in2="effect1_dropShadow_0:465" result="shape"/></filter><filter id="b" x="191.134" y="218.69" width="351.732" height="356.502" filterUnits="userSpaceOnUse" color-interpolation-filters="sRGB"><feFlood flood-opacity="0" result="BackgroundImageFix"/><feBlend in="SourceGraphic" in2="BackgroundImageFix" result="shape"/><feColorMatrix in="SourceAlpha" values="0 0 0 0 0 0 0 0 0 0 0 0 0 0 0 0 0 0 127 0" result="hardAlpha"/><feOffset dy="4"/><feGaussianBlur stdDeviation="2"/><feComposite in2="hardAlpha" operator="arithmetic" k2="-1" k3="1"/><feColorMatrix values="0 0 0 0 0 0 0 0 0 0 0 0 0 0 0 0 0 0 0.25 0"/><feBlend in2="shape" result="effect1_innerShadow_0:465"/></filter><radialGradient id="c" cx="0" cy="0" r="1" gradientUnits="userSpaceOnUse" gradientTransform="matrix(1115.41267 -85.43723 116.38748 1519.47905 367 394.941)"><stop stop-color="#05AA5B"/><stop offset="1" stop-color="#00D870" stop-opacity=".51"/></radialGradient></defs></svg>