<svg width="35" height="35" fill="none" xmlns="http://www.w3.org/2000/svg"><path d="M31.402 10.371c.022.311.022.622.022.933 0 9.483-7.217 20.41-20.409 20.41-4.064 0-7.84-1.178-11.015-3.22.577.066 1.133.088 1.732.088 3.354 0 6.44-1.133 8.906-3.065a7.186 7.186 0 0 1-6.707-4.974c.444.066.888.11 1.355.11.644 0 1.288-.088 1.887-.244a7.174 7.174 0 0 1-5.752-7.04v-.088a7.225 7.225 0 0 0 3.243.91 7.168 7.168 0 0 1-3.198-5.974 7.12 7.12 0 0 1 .977-3.62 20.39 20.39 0 0 0 14.79 7.506 8.098 8.098 0 0 1-.177-1.643 7.17 7.17 0 0 1 7.173-7.173c2.065 0 3.93.866 5.241 2.265 1.621-.31 3.176-.91 4.553-1.732a7.153 7.153 0 0 1-3.154 3.953A14.381 14.381 0 0 0 35 6.663a15.418 15.418 0 0 1-3.597 3.708Z" fill="#0680D7"/></svg>