<svg width="23" height="18" viewBox="0 0 23 18" fill="none" xmlns="http://www.w3.org/2000/svg">
<path d="M20.0334 4.48592C20.0475 4.68279 20.0475 4.87969 20.0475 5.07656C20.0475 11.0812 15.4886 18 7.15647 18C4.58948 18 2.20487 17.2547 0.198975 15.961C0.563695 16.0031 0.91434 16.0172 1.29309 16.0172C3.41117 16.0172 5.36098 15.3 6.918 14.0766C4.92613 14.0344 3.25689 12.7266 2.68177 10.9266C2.96234 10.9687 3.24286 10.9969 3.53746 10.9969C3.94423 10.9969 4.35105 10.9406 4.72976 10.8422C2.65375 10.4203 1.09668 8.59218 1.09668 6.38437V6.32814C1.69982 6.66564 2.40124 6.87657 3.14463 6.90467C1.92426 6.08902 1.12474 4.69685 1.12474 3.12184C1.12474 2.27811 1.34914 1.50467 1.74192 0.829666C3.97226 3.58591 7.32477 5.38588 11.084 5.58279C11.0139 5.24529 10.9718 4.89376 10.9718 4.54219C10.9718 2.03904 12.9917 0 15.5026 0C16.8071 0 17.9854 0.548436 18.813 1.43437C19.837 1.23751 20.8189 0.857802 21.6886 0.337502C21.3519 1.39221 20.6365 2.27815 19.6967 2.84061C20.6085 2.74222 21.4922 2.48904 22.3058 2.13752C21.6887 3.03748 20.9171 3.83901 20.0334 4.48592Z" fill="#0680D7"/>
</svg>
