<svg width="17" height="17" fill="none" xmlns="http://www.w3.org/2000/svg"><g clip-path="url(#a)"><path d="M9.28 15.531a.9.9 0 0 1-1.56 0L.123 2.37a.9.9 0 0 1 .78-1.35h15.197a.9.9 0 0 1 .78 1.35l-7.6 13.161Z" fill="#5A5A5A" fill-opacity=".64"/><path fill-rule="evenodd" clip-rule="evenodd" d="M7.72 15.531a.9.9 0 0 0 1.56 0L16.877 2.37l.006-.01-6.436 11.146L3.24 1.02H.901a.9.9 0 0 0-.78 1.35l7.6 13.161Z" fill="url(#b)" fill-opacity=".32"/></g><defs><linearGradient id="b" x1="0" y1="3.07" x2="7.093" y2="15.166" gradientUnits="userSpaceOnUse"><stop stop-color="#5A5A5A"/><stop offset="1" stop-color="#CCC"/></linearGradient><clipPath id="a"><path fill="#fff" d="M0 0h17v17H0z"/></clipPath></defs></svg>